<svg width="189" height="119" viewBox="0 0 189 119" fill="none" xmlns="http://www.w3.org/2000/svg">
<ellipse cx="66.6465" cy="103.194" rx="23.6484" ry="1.71989" fill="#4F4F4F" fill-opacity="0.13"/>
<path d="M71.8871 48.0439C71.8871 48.0439 63.7436 50.4404 55.6235 37.2956C46.8685 23.1075 39.2524 5.03804 30.0197 8.57321C20.7869 12.1084 22.0667 25.1144 29.1382 37.068C35.335 47.5307 52.8196 67.9094 78.2767 59.1304L71.8871 48.0439Z" fill="#FF9900"/>
<path d="M77.513 57.7443L77.446 57.7832C71.7621 59.8269 65.9303 59.4215 60.1213 56.5872C42.888 48.1608 30.8699 20.7351 29.2238 15.6854C29.1898 15.5772 29.1989 15.4601 29.2494 15.3585C29.2998 15.257 29.3877 15.1789 29.4945 15.1407C29.6042 15.108 29.7222 15.1186 29.8244 15.1703C29.9265 15.2221 30.0049 15.311 30.0434 15.4188C31.6871 20.4301 43.5303 47.5199 60.4972 55.8125C63.0418 57.1487 65.8363 57.9415 68.7035 58.1406C71.5707 58.3397 74.448 57.9408 77.1528 56.9691C77.2066 56.9498 77.2636 56.9415 77.3205 56.9445C77.3775 56.9475 77.4333 56.9618 77.4847 56.9866C77.5361 57.0114 77.582 57.0461 77.6198 57.0888C77.6576 57.1316 77.6866 57.1814 77.7049 57.2354C77.7382 57.3292 77.7372 57.4318 77.7021 57.525C77.667 57.6182 77.6 57.6959 77.513 57.7443Z" fill="white"/>
<path d="M97.3971 92.0309C90.6031 97.303 78.6252 104.229 68.5564 102.792C58.4877 101.354 57.2129 95.8309 58.734 92.3343C60.2551 88.8377 61.267 85.2686 54.18 83.5731C47.093 81.8776 35.7115 79.1535 27.2611 70.0674C18.8107 60.9812 16.1896 53.7533 19.5973 48.8644C22.9024 44.1244 26.0501 46.7922 32.8456 52.1162C39.6411 57.4402 42.4354 47.8769 49.032 46.9442C55.6286 46.0114 57.8979 50.4213 60.3681 53.9095C62.8383 57.3977 65.1924 57.3944 68.2201 55.6385C71.2478 53.8827 75.27 53.8762 77.2804 57.3428L97.3971 92.0309Z" fill="#F8BFFF"/>
<path d="M90.3473 79.8756C90.3195 79.9012 90.2865 79.9203 90.2505 79.9317C89.8789 80.0279 80.9683 82.2331 63.9473 78.4752C45.8206 74.4737 30.7935 61.4178 30.6391 61.2887C30.5562 61.2115 30.5064 61.1052 30.5001 60.9921C30.4938 60.879 30.5315 60.7679 30.6054 60.682C30.6802 60.5973 30.7854 60.5456 30.8981 60.5379C31.0108 60.5302 31.1221 60.5671 31.2077 60.6408C31.3547 60.7743 46.2263 73.6818 64.1339 77.6313C80.9211 81.3459 89.9425 79.1262 90.0373 79.1011C90.0921 79.0876 90.149 79.085 90.2049 79.0935C90.2607 79.102 90.3143 79.1214 90.3626 79.1506C90.4109 79.1798 90.453 79.2182 90.4865 79.2637C90.52 79.3092 90.5441 79.3608 90.5577 79.4156C90.5771 79.5047 90.5671 79.5978 90.5292 79.6807C90.4912 79.7637 90.4274 79.832 90.3473 79.8756Z" fill="white"/>
<path d="M68.5511 79.2651C68.477 79.3096 68.3908 79.3297 68.3046 79.3226C68.2185 79.3155 68.1367 79.2815 68.0709 79.2255C62.1281 74.4806 53.9793 61.6805 53.6111 61.1485C53.5521 61.0516 53.533 60.9355 53.5577 60.8248C53.5825 60.714 53.6492 60.6172 53.7439 60.5546C53.8418 60.4997 53.9566 60.4828 54.0662 60.5073C54.1758 60.5318 54.2725 60.5959 54.3378 60.6873C54.4154 60.8212 62.7517 73.9102 68.5851 78.5694C68.6296 78.6049 68.6667 78.6489 68.6941 78.6988C68.7215 78.7487 68.7386 78.8036 68.7447 78.8602C68.7507 78.9168 68.7454 78.9741 68.7291 79.0286C68.7128 79.0832 68.6859 79.134 68.6498 79.178C68.6214 79.2118 68.5881 79.2411 68.5511 79.2651Z" fill="white"/>
<path d="M73.6032 88.1147C72.9205 88.5178 72.2148 88.8806 71.4897 89.2012C71.4374 89.2237 71.3813 89.2357 71.3244 89.2364C71.2675 89.2372 71.2111 89.2267 71.1582 89.2057C71.1054 89.1846 71.0573 89.1534 71.0165 89.1137C70.9758 89.074 70.9432 89.0267 70.9208 88.9745C70.8983 88.9222 70.8863 88.8661 70.8856 88.8092C70.8848 88.7523 70.8953 88.6959 70.9163 88.6431C70.9374 88.5902 70.9686 88.5421 71.0083 88.5013C71.048 88.4606 71.0953 88.428 71.1475 88.4056C71.2145 88.3667 78.5975 85.1388 79.8973 80.0608C79.9077 80.0024 79.93 79.9469 79.9628 79.8976C79.9957 79.8482 80.0384 79.8063 80.0882 79.7742C80.1381 79.7422 80.194 79.7208 80.2525 79.7115C80.311 79.7021 80.3708 79.7049 80.4282 79.7197C80.4855 79.7345 80.5392 79.761 80.5859 79.7975C80.6325 79.8341 80.6711 79.8799 80.6992 79.932C80.7273 79.9842 80.7443 80.0416 80.7492 80.1006C80.754 80.1597 80.7466 80.2191 80.7275 80.2752C79.805 83.9813 76.0284 86.7083 73.6032 88.1147Z" fill="white"/>
<path d="M153.481 67.4404C153.481 67.4404 176.486 79.2194 180.158 71.1144C183.985 62.6767 168.142 61.5036 160.406 61.082C143.876 60.1687 140.635 61.6846 144.522 63.4391L153.481 67.4404ZM134.533 68.431C131.409 65.5099 134.981 65.1253 150.326 71.3526C157.543 74.2747 172.108 80.514 165.747 87.2553C159.65 93.7295 141.699 75.1211 141.699 75.1211L134.533 68.431ZM120.323 72.0789C118.377 69.3967 121.145 69.6219 131.98 76.6055C137.054 79.8826 147.298 86.767 141.477 91.0031C135.863 95.0687 124.852 78.243 124.852 78.243L120.323 72.0789ZM103.478 75.8764C101.525 73.1936 104.3 73.4194 115.129 80.4023C120.202 83.6794 130.454 90.5645 124.626 94.7999C119.001 98.8371 107.986 82.0587 107.986 82.0587L103.478 75.8764ZM138.221 63.5411C136.292 67.3354 134.925 64.0349 136.597 47.559C137.359 39.8289 139.267 24.079 147.523 28.2907C155.456 32.3273 142.634 54.7655 142.634 54.7655L138.221 63.5411ZM126.805 66.9527C125.67 71.0573 123.67 68.0901 122.034 51.6087C121.26 43.8841 119.988 28.0731 128.886 30.5537C137.466 32.9348 129.356 57.475 129.356 57.475L126.805 66.9527ZM112.91 70.659C112.046 74.1626 110.29 71.697 108.521 57.802C107.69 51.2862 106.242 37.9414 113.854 39.8381C121.18 41.652 114.872 62.59 114.872 62.59L112.91 70.659ZM100.121 73.2529C98.8924 76.6456 97.4057 74.0087 97.1227 59.9941C96.9919 53.4314 96.9644 40.0083 104.334 42.693C111.407 45.2802 102.932 65.4315 102.932 65.4315L100.121 73.2529ZM152.381 57.8415C147.64 59.4209 148.745 55.2792 162.643 42.1988C169.162 36.0733 182.745 23.8352 187.797 35.0859C192.654 45.8877 163.271 54.0915 163.271 54.0915L152.381 57.8415ZM84.0029 71.1317C82.5417 73.1505 82.2623 71.001 85.1905 61.3694C86.5571 56.851 89.5082 47.6788 93.1959 51.2423C96.745 54.6897 87.3974 66.4585 87.3974 66.4585L84.0029 71.1317Z" fill="#46A834"/>
<path opacity="0.3" d="M153.481 67.4404C153.481 67.4404 176.486 79.2194 180.158 71.1144C183.985 62.6767 168.142 61.5036 160.406 61.082C143.876 60.1687 140.635 61.6846 144.522 63.4391L153.481 67.4404ZM134.533 68.431C131.409 65.5099 134.981 65.1253 150.326 71.3526C157.543 74.2747 172.108 80.514 165.747 87.2553C159.65 93.7295 141.699 75.1211 141.699 75.1211L134.533 68.431ZM120.323 72.0789C118.377 69.3967 121.145 69.6219 131.98 76.6055C137.054 79.8826 147.298 86.767 141.477 91.0031C135.863 95.0687 124.852 78.243 124.852 78.243L120.323 72.0789ZM103.478 75.8764C101.525 73.1935 104.3 73.4194 115.129 80.4023C120.202 83.6794 130.454 90.5645 124.626 94.7999C119.001 98.8371 107.986 82.0587 107.986 82.0587L103.478 75.8764ZM138.221 63.5411C136.292 67.3354 134.925 64.0349 136.597 47.559C137.359 39.8289 139.267 24.079 147.523 28.2907C155.456 32.3273 142.634 54.7655 142.634 54.7655L138.221 63.5411ZM126.805 66.9527C125.67 71.0573 123.67 68.0901 122.034 51.6087C121.26 43.8841 119.988 28.0731 128.886 30.5537C137.466 32.9348 129.356 57.475 129.356 57.475L126.805 66.9527ZM112.91 70.659C112.046 74.1626 110.29 71.697 108.521 57.802C107.69 51.2862 106.242 37.9414 113.854 39.8381C121.18 41.652 114.872 62.59 114.872 62.59L112.91 70.659ZM100.121 73.2529C98.8924 76.6456 97.4057 74.0087 97.1227 59.9941C96.9919 53.4314 96.9644 40.0082 104.334 42.693C111.407 45.2802 102.932 65.4315 102.932 65.4315L100.121 73.2529ZM152.381 57.8415C147.64 59.4209 148.745 55.2792 162.643 42.1988C169.162 36.0733 182.745 23.8352 187.797 35.0859C192.654 45.8877 163.271 54.0915 163.271 54.0915L152.381 57.8415ZM84.0029 71.1317C82.5417 73.1505 82.2623 71.001 85.1905 61.3694C86.5571 56.851 89.5082 47.6788 93.1959 51.2423C96.745 54.6897 87.3974 66.4585 87.3974 66.4585L84.0029 71.1317Z" fill="white"/>
<path d="M142.748 62.1863L169.905 66.5217L142.748 62.1863ZM133.221 66.4938L155.693 79.189L133.221 66.4938ZM142.694 40.3822L136.674 64.9033L142.694 40.3822ZM120.028 70.6241L135.978 85.7944L120.028 70.6241ZM125.559 68.7814L126.456 50.1345L125.559 68.7814ZM111.875 71.8671L111.869 57.5386L111.875 71.8671ZM103.118 74.4629L113.025 82.5557L103.118 74.4629ZM99.2949 74.9046L100.784 58.2061L99.2949 74.9046ZM67.663 75.1974C67.6826 75.0865 67.7453 74.9878 67.8373 74.9228C67.9293 74.8578 68.0432 74.8317 68.1543 74.8502C83.983 77.4819 110.686 73.8922 133.081 66.1184C147.394 61.1502 176.742 39.0382 177.038 38.8013C177.126 38.7296 177.239 38.6955 177.351 38.7066C177.464 38.7177 177.568 38.7731 177.64 38.8606C177.675 38.9034 177.702 38.9528 177.718 39.0059C177.734 39.0591 177.74 39.1149 177.734 39.1701C177.729 39.2254 177.712 39.2791 177.686 39.328C177.66 39.3769 177.624 39.4202 177.581 39.4552C177.286 39.6786 147.826 61.882 133.387 66.8922C110.454 74.7972 84.2314 78.3524 68.0197 75.6624C67.9129 75.6434 67.8171 75.5852 67.7511 75.4991C67.6851 75.4131 67.6537 75.3055 67.663 75.1974ZM142.328 62.1518C142.346 62.0407 142.407 61.9412 142.498 61.8748C142.589 61.8084 142.702 61.7805 142.813 61.7971L169.986 66.1067C170.042 66.1148 170.095 66.1338 170.143 66.1627C170.191 66.1916 170.233 66.2297 170.266 66.2749C170.299 66.3201 170.322 66.3714 170.335 66.4258C170.348 66.4803 170.35 66.5368 170.341 66.592C170.323 66.7031 170.262 66.8026 170.171 66.869C170.081 66.9353 169.967 66.9633 169.856 66.9467L142.699 62.6114C142.592 62.5955 142.495 62.5391 142.428 62.4538C142.362 62.3684 142.331 62.2608 142.342 62.1531L142.328 62.1518ZM132.851 66.3072C132.907 66.2105 132.998 66.1394 133.106 66.1093C133.213 66.0791 133.328 66.0921 133.426 66.1456L155.897 78.8476C155.994 78.9024 156.066 78.9939 156.097 79.1018C156.127 79.2097 156.113 79.3252 156.058 79.423C156.003 79.5207 155.912 79.5926 155.804 79.6229C155.696 79.6533 155.581 79.6395 155.483 79.5846L133.012 66.8894C132.94 66.8493 132.881 66.7893 132.842 66.7165C132.803 66.6436 132.786 66.5611 132.793 66.4789C132.796 66.4086 132.817 66.3403 132.854 66.2802L132.851 66.3072ZM136.271 64.8296L142.277 40.3207C142.284 40.2608 142.304 40.203 142.335 40.1513C142.366 40.0996 142.407 40.055 142.457 40.0205C142.506 39.986 142.562 39.9624 142.622 39.9511C142.681 39.9399 142.742 39.9414 142.801 39.9554C142.859 39.9694 142.914 39.9957 142.962 40.0325C143.01 40.0693 143.05 40.1158 143.078 40.1689C143.107 40.2221 143.124 40.2807 143.128 40.3409C143.132 40.4011 143.124 40.4615 143.103 40.5182L137.098 65.0271C137.08 65.1375 137.019 65.2361 136.928 65.3014C136.837 65.3667 136.724 65.3931 136.613 65.375C136.503 65.3569 136.404 65.2957 136.339 65.2048C136.274 65.1139 136.247 65.0008 136.265 64.8904L136.271 64.8296ZM119.714 70.3542C119.792 70.2728 119.899 70.2255 120.011 70.2225C120.124 70.2196 120.234 70.2613 120.316 70.3385L136.299 85.5189C136.382 85.5968 136.43 85.7043 136.434 85.8179C136.437 85.9315 136.396 86.0418 136.318 86.1246C136.24 86.2074 136.132 86.2559 136.019 86.2594C135.905 86.2629 135.795 86.2212 135.712 86.1434L119.704 70.9333C119.658 70.8891 119.622 70.8349 119.599 70.7747C119.577 70.7146 119.569 70.6501 119.575 70.5862C119.59 70.4858 119.64 70.394 119.716 70.3272L119.714 70.3542ZM126.472 49.7608C126.584 49.7682 126.689 49.8194 126.764 49.9033C126.839 49.9873 126.877 50.0973 126.871 50.2095L125.985 68.8233C125.967 68.9267 125.913 69.0201 125.831 69.0857C125.749 69.1514 125.646 69.1847 125.541 69.1795C125.437 69.1742 125.338 69.1307 125.263 69.0571C125.188 68.9836 125.143 68.8852 125.136 68.7806L126.026 50.133C126.034 50.0209 126.085 49.9161 126.169 49.8414C126.253 49.7667 126.363 49.728 126.475 49.7338L126.472 49.7608ZM111.867 57.1427C111.923 57.1417 111.979 57.1519 112.031 57.1728C112.084 57.1936 112.131 57.2248 112.171 57.2644C112.211 57.3039 112.243 57.3511 112.264 57.4031C112.286 57.4551 112.296 57.5108 112.296 57.5671L112.296 71.8949C112.296 71.9505 112.285 72.0056 112.264 72.057C112.242 72.1084 112.211 72.155 112.172 72.1943C112.132 72.2335 112.086 72.2646 112.034 72.2857C111.983 72.3067 111.928 72.3174 111.872 72.317C111.76 72.3156 111.653 72.2704 111.574 72.1913C111.496 72.1121 111.451 72.0051 111.45 71.8934L111.443 57.5649L111.447 57.5244C111.45 57.4146 111.496 57.3105 111.575 57.2341C111.654 57.1578 111.76 57.1153 111.87 57.1157L111.867 57.1427ZM102.787 74.2255C102.858 74.1378 102.961 74.0819 103.074 74.0699C103.186 74.058 103.299 74.091 103.387 74.1618L113.297 82.2209C113.382 82.2942 113.435 82.3974 113.446 82.5091C113.457 82.6208 113.424 82.7322 113.354 82.8201C113.283 82.9078 113.18 82.9638 113.067 82.9757C112.955 82.9876 112.842 82.9546 112.754 82.8838L102.844 74.8247C102.79 74.7789 102.748 74.7207 102.721 74.6551C102.694 74.5895 102.683 74.5185 102.69 74.4479C102.694 74.3559 102.729 74.268 102.79 74.1985L102.787 74.2255ZM100.826 57.7804C100.937 57.793 101.039 57.848 101.111 57.9338C101.182 58.0196 101.218 58.1298 101.211 58.2413L99.7213 74.9399C99.7103 75.051 99.6557 75.1532 99.5693 75.224C99.483 75.2948 99.3721 75.3285 99.261 75.3175C99.205 75.3138 99.1503 75.2988 99.1003 75.2734C99.0503 75.2479 99.0059 75.2126 98.97 75.1695C98.934 75.1264 98.9072 75.0764 98.8912 75.0226C98.8751 74.9688 98.8702 74.9124 98.8766 74.8566L100.366 58.158C100.369 58.1007 100.383 58.0446 100.408 57.993C100.433 57.9414 100.469 57.8953 100.512 57.8576C100.555 57.8198 100.605 57.7911 100.66 57.7732C100.714 57.7553 100.772 57.7486 100.829 57.7533L100.826 57.7804ZM73.672 77.7071C73.7497 77.6806 81.8684 75.6086 84.5835 67.2387C84.6186 67.1309 84.695 67.0415 84.7961 66.99C84.8971 66.9386 85.0144 66.9293 85.1222 66.9643C85.2276 67.0023 85.3142 67.0794 85.364 67.1797C85.4139 67.2799 85.4231 67.3955 85.3898 67.5024C82.5274 76.3286 73.9549 78.5059 73.8705 78.5317C73.7603 78.556 73.6451 78.5365 73.5491 78.4774C73.453 78.4183 73.3838 78.3241 73.3559 78.2149L73.3692 78.0798C73.3703 77.9891 73.4006 77.9013 73.4557 77.8292C73.5107 77.7572 73.5875 77.7049 73.6747 77.68L73.672 77.7071ZM67.663 75.1974C67.6826 75.0865 67.7453 74.9878 67.8373 74.9228C67.9293 74.8578 68.0432 74.8317 68.1543 74.8502C83.983 77.4819 110.686 73.8922 133.081 66.1184C147.394 61.1502 176.742 39.0382 177.038 38.8013C177.126 38.7296 177.239 38.6955 177.351 38.7066C177.464 38.7177 177.568 38.7731 177.64 38.8606C177.675 38.9034 177.702 38.9528 177.718 39.0059C177.734 39.0591 177.74 39.1149 177.734 39.1701C177.729 39.2254 177.712 39.2791 177.686 39.328C177.66 39.3769 177.624 39.4202 177.581 39.4552C177.286 39.6786 147.826 61.882 133.387 66.8922C110.454 74.7972 84.2314 78.3524 68.0197 75.6624C67.9129 75.6434 67.8171 75.5852 67.7511 75.4991C67.6851 75.4131 67.6537 75.3055 67.663 75.1974ZM142.328 62.1518C142.346 62.0407 142.407 61.9412 142.498 61.8748C142.589 61.8084 142.702 61.7805 142.813 61.7971L169.986 66.1067C170.042 66.1148 170.095 66.1338 170.143 66.1627C170.191 66.1916 170.233 66.2297 170.266 66.2749C170.299 66.3201 170.322 66.3714 170.335 66.4258C170.348 66.4803 170.35 66.5368 170.341 66.592C170.323 66.7031 170.262 66.8026 170.171 66.869C170.081 66.9353 169.967 66.9633 169.856 66.9467L142.699 62.6114C142.592 62.5955 142.495 62.5391 142.428 62.4538C142.362 62.3684 142.331 62.2608 142.342 62.1531L142.328 62.1518ZM132.851 66.3072C132.907 66.2105 132.998 66.1394 133.106 66.1093C133.213 66.0791 133.328 66.0921 133.426 66.1456L155.897 78.8476C155.994 78.9024 156.066 78.9939 156.097 79.1018C156.127 79.2097 156.113 79.3252 156.058 79.423C156.003 79.5207 155.912 79.5926 155.804 79.6229C155.696 79.6533 155.581 79.6395 155.483 79.5846L133.012 66.8894C132.94 66.8493 132.881 66.7893 132.842 66.7165C132.803 66.6436 132.786 66.5611 132.793 66.4789C132.796 66.4086 132.817 66.3403 132.854 66.2802L132.851 66.3072ZM136.271 64.8296L142.277 40.3207C142.284 40.2608 142.304 40.203 142.335 40.1513C142.366 40.0996 142.407 40.055 142.457 40.0205C142.506 39.986 142.562 39.9624 142.622 39.9511C142.681 39.9399 142.742 39.9414 142.801 39.9554C142.859 39.9694 142.914 39.9957 142.962 40.0325C143.01 40.0693 143.05 40.1158 143.078 40.1689C143.107 40.2221 143.124 40.2807 143.128 40.3409C143.132 40.4011 143.124 40.4615 143.103 40.5182L137.098 65.0271C137.08 65.1375 137.019 65.2361 136.928 65.3014C136.837 65.3667 136.724 65.3931 136.613 65.375C136.503 65.3569 136.404 65.2957 136.339 65.2048C136.274 65.1139 136.247 65.0008 136.265 64.8904L136.271 64.8296ZM119.714 70.3542C119.792 70.2728 119.899 70.2255 120.011 70.2225C120.124 70.2196 120.234 70.2613 120.316 70.3385L136.299 85.5189C136.34 85.5575 136.373 85.6037 136.396 85.655C136.419 85.7063 136.432 85.7616 136.434 85.8179C136.436 85.8741 136.426 85.9302 136.406 85.9828C136.386 86.0354 136.356 86.0836 136.318 86.1246C136.279 86.1656 136.233 86.1986 136.182 86.2217C136.13 86.2449 136.075 86.2577 136.019 86.2594C135.963 86.2612 135.907 86.2518 135.854 86.2319C135.801 86.212 135.753 86.1819 135.712 86.1434L119.704 70.9333C119.658 70.8891 119.622 70.8349 119.599 70.7747C119.577 70.7146 119.569 70.6501 119.575 70.5862C119.59 70.4858 119.64 70.394 119.716 70.3272L119.714 70.3542ZM126.472 49.7608C126.584 49.7682 126.689 49.8194 126.764 49.9033C126.839 49.9873 126.877 50.0973 126.871 50.2095L125.985 68.8233C125.967 68.9267 125.913 69.0201 125.831 69.0857C125.749 69.1514 125.646 69.1847 125.541 69.1795C125.437 69.1742 125.338 69.1307 125.263 69.0571C125.188 68.9836 125.143 68.8852 125.136 68.7806L126.026 50.133C126.034 50.0209 126.085 49.9161 126.169 49.8414C126.253 49.7667 126.363 49.728 126.475 49.7338L126.472 49.7608ZM111.867 57.1427C111.923 57.1417 111.979 57.1519 112.031 57.1728C112.084 57.1936 112.131 57.2248 112.171 57.2644C112.211 57.3039 112.243 57.3511 112.264 57.4031C112.286 57.4551 112.296 57.5108 112.296 57.5671L112.296 71.8949C112.296 71.9505 112.285 72.0056 112.264 72.057C112.242 72.1084 112.211 72.155 112.172 72.1943C112.132 72.2335 112.086 72.2646 112.034 72.2857C111.983 72.3067 111.928 72.3174 111.872 72.317C111.76 72.3156 111.653 72.2704 111.574 72.1913C111.496 72.1121 111.451 72.0051 111.45 71.8934L111.443 57.5649L111.447 57.5244C111.45 57.4146 111.496 57.3105 111.575 57.2341C111.654 57.1578 111.76 57.1153 111.87 57.1157L111.867 57.1427ZM102.787 74.2255C102.858 74.1378 102.961 74.0819 103.074 74.0699C103.186 74.058 103.299 74.091 103.387 74.1618L113.297 82.2209C113.382 82.2942 113.435 82.3974 113.446 82.5091C113.457 82.6208 113.424 82.7322 113.354 82.8201C113.283 82.9078 113.18 82.9638 113.067 82.9757C112.955 82.9876 112.842 82.9546 112.754 82.8838L102.844 74.8247C102.79 74.7789 102.748 74.7207 102.721 74.6551C102.694 74.5895 102.683 74.5185 102.69 74.4479C102.694 74.3559 102.729 74.268 102.79 74.1985L102.787 74.2255ZM100.826 57.7804C100.937 57.793 101.039 57.848 101.111 57.9338C101.182 58.0196 101.218 58.1298 101.211 58.2413L99.7213 74.9399C99.7103 75.051 99.6557 75.1532 99.5693 75.224C99.483 75.2948 99.3721 75.3285 99.261 75.3175C99.205 75.3138 99.1503 75.2988 99.1003 75.2734C99.0503 75.2479 99.0059 75.2126 98.97 75.1695C98.934 75.1264 98.9072 75.0764 98.8912 75.0226C98.8751 74.9688 98.8702 74.9124 98.8766 74.8566L100.366 58.158C100.369 58.1007 100.383 58.0446 100.408 57.993C100.433 57.9414 100.469 57.8953 100.512 57.8576C100.555 57.8198 100.605 57.7911 100.66 57.7732C100.714 57.7553 100.772 57.7486 100.829 57.7533L100.826 57.7804ZM73.672 77.7071C73.7497 77.6806 81.8684 75.6086 84.5835 67.2387C84.6186 67.1309 84.695 67.0415 84.7961 66.99C84.8971 66.9386 85.0144 66.9293 85.1222 66.9643C85.2276 67.0023 85.3142 67.0794 85.364 67.1797C85.4139 67.2799 85.4231 67.3955 85.3898 67.5024C82.5274 76.3286 73.9549 78.5059 73.8705 78.5317C73.7603 78.556 73.6451 78.5365 73.5491 78.4774C73.453 78.4183 73.3838 78.3241 73.3559 78.2149L73.3692 78.0798C73.3703 77.9891 73.4006 77.9013 73.4557 77.8292C73.5107 77.7572 73.5875 77.7049 73.6747 77.68L73.672 77.7071Z" fill="#46A834"/>
<path opacity="0.2" d="M67.663 75.1974C67.6826 75.0865 67.7453 74.9878 67.8373 74.9228C67.9293 74.8578 68.0432 74.8317 68.1543 74.8502C83.983 77.4819 110.686 73.8922 133.081 66.1184C147.394 61.1502 176.742 39.0382 177.038 38.8013C177.126 38.7296 177.239 38.6955 177.351 38.7066C177.464 38.7177 177.568 38.7731 177.64 38.8606C177.675 38.9034 177.702 38.9528 177.718 39.0059C177.734 39.0591 177.74 39.1149 177.734 39.1701C177.729 39.2254 177.712 39.2791 177.686 39.328C177.66 39.3769 177.624 39.4202 177.581 39.4553C177.286 39.6786 147.826 61.882 133.387 66.8922C110.454 74.7972 84.2314 78.3524 68.0197 75.6624C67.9129 75.6434 67.8171 75.5852 67.7511 75.4991C67.6851 75.4131 67.6537 75.3055 67.663 75.1974ZM142.328 62.1518C142.346 62.0407 142.407 61.9412 142.498 61.8748C142.589 61.8084 142.702 61.7805 142.813 61.7971L169.986 66.1067C170.042 66.1148 170.095 66.1338 170.143 66.1627C170.191 66.1916 170.233 66.2297 170.266 66.2749C170.299 66.3201 170.322 66.3714 170.335 66.4258C170.348 66.4803 170.35 66.5368 170.341 66.592C170.323 66.7031 170.262 66.8026 170.171 66.869C170.081 66.9353 169.967 66.9633 169.856 66.9467L142.699 62.6114C142.592 62.5956 142.495 62.5391 142.428 62.4538C142.362 62.3685 142.331 62.2608 142.342 62.1531L142.328 62.1518ZM132.851 66.3072C132.907 66.2105 132.998 66.1395 133.106 66.1093C133.213 66.0791 133.328 66.0921 133.426 66.1456L155.897 78.8476C155.994 78.9024 156.066 78.9939 156.097 79.1018C156.127 79.2097 156.113 79.3252 156.058 79.423C156.003 79.5207 155.912 79.5926 155.804 79.6229C155.696 79.6533 155.581 79.6395 155.483 79.5846L133.012 66.8894C132.94 66.8493 132.881 66.7893 132.842 66.7165C132.803 66.6436 132.786 66.5611 132.793 66.4789C132.796 66.4086 132.817 66.3403 132.854 66.2802L132.851 66.3072ZM136.271 64.8296L142.277 40.3207C142.284 40.2608 142.304 40.2031 142.335 40.1513C142.366 40.0996 142.407 40.055 142.457 40.0205C142.506 39.986 142.562 39.9624 142.622 39.9511C142.681 39.9399 142.742 39.9414 142.801 39.9554C142.859 39.9694 142.914 39.9957 142.962 40.0325C143.01 40.0693 143.05 40.1158 143.078 40.169C143.107 40.2221 143.124 40.2807 143.128 40.3409C143.132 40.4011 143.124 40.4615 143.103 40.5182L137.098 65.0271C137.08 65.1375 137.019 65.2362 136.928 65.3014C136.837 65.3667 136.724 65.3931 136.613 65.375C136.503 65.3569 136.404 65.2957 136.339 65.2048C136.274 65.1139 136.247 65.0008 136.265 64.8904L136.271 64.8296ZM119.714 70.3542C119.792 70.2728 119.899 70.2255 120.011 70.2225C120.124 70.2196 120.234 70.2613 120.316 70.3385L136.299 85.5189C136.382 85.5968 136.43 85.7043 136.434 85.8179C136.437 85.9315 136.396 86.0418 136.318 86.1246C136.24 86.2074 136.132 86.2559 136.019 86.2594C135.905 86.2629 135.795 86.2212 135.712 86.1434L119.704 70.9333C119.658 70.8891 119.622 70.8349 119.599 70.7747C119.577 70.7146 119.569 70.6501 119.575 70.5862C119.59 70.4858 119.64 70.394 119.716 70.3272L119.714 70.3542ZM126.472 49.7608C126.584 49.7682 126.689 49.8194 126.764 49.9033C126.839 49.9873 126.877 50.0973 126.871 50.2096L125.985 68.8233C125.967 68.9267 125.913 69.0201 125.831 69.0857C125.749 69.1514 125.646 69.1848 125.541 69.1795C125.437 69.1742 125.338 69.1307 125.263 69.0571C125.188 68.9836 125.143 68.8852 125.136 68.7806L126.026 50.133C126.034 50.0209 126.085 49.9161 126.169 49.8414C126.253 49.7667 126.363 49.7281 126.475 49.7338L126.472 49.7608ZM111.867 57.1427C111.923 57.1417 111.979 57.1519 112.031 57.1728C112.084 57.1937 112.131 57.2248 112.171 57.2644C112.211 57.3039 112.243 57.3511 112.264 57.4031C112.286 57.4551 112.296 57.5109 112.296 57.5671L112.296 71.8949C112.296 71.9505 112.285 72.0056 112.264 72.057C112.242 72.1084 112.211 72.155 112.172 72.1943C112.132 72.2335 112.086 72.2646 112.034 72.2857C111.983 72.3067 111.928 72.3174 111.872 72.3171C111.76 72.3156 111.653 72.2704 111.574 72.1913C111.496 72.1121 111.451 72.0051 111.45 71.8934L111.443 57.5649L111.447 57.5244C111.45 57.4146 111.496 57.3105 111.575 57.2341C111.654 57.1578 111.76 57.1153 111.87 57.1157L111.867 57.1427ZM102.787 74.2255C102.858 74.1378 102.961 74.0819 103.074 74.0699C103.186 74.058 103.299 74.091 103.387 74.1618L113.297 82.2209C113.382 82.2942 113.435 82.3974 113.446 82.5091C113.457 82.6208 113.424 82.7322 113.354 82.8201C113.283 82.9078 113.18 82.9638 113.067 82.9757C112.955 82.9876 112.842 82.9546 112.754 82.8838L102.844 74.8247C102.79 74.7789 102.748 74.7207 102.721 74.6551C102.694 74.5895 102.683 74.5185 102.69 74.4479C102.694 74.3559 102.729 74.268 102.79 74.1985L102.787 74.2255ZM100.826 57.7804C100.937 57.793 101.039 57.848 101.111 57.9338C101.182 58.0196 101.218 58.1298 101.211 58.2413L99.7213 74.9399C99.7103 75.051 99.6556 75.1532 99.5693 75.224C99.483 75.2948 99.3721 75.3285 99.261 75.3175C99.205 75.3138 99.1503 75.2988 99.1003 75.2734C99.0503 75.2479 99.0059 75.2126 98.97 75.1695C98.934 75.1264 98.9072 75.0764 98.8912 75.0226C98.8751 74.9688 98.8702 74.9124 98.8766 74.8566L100.366 58.158C100.369 58.1007 100.383 58.0446 100.408 57.993C100.433 57.9414 100.468 57.8953 100.512 57.8576C100.555 57.8198 100.605 57.7911 100.66 57.7732C100.714 57.7553 100.772 57.7486 100.829 57.7534L100.826 57.7804ZM73.672 77.7071C73.7497 77.6806 81.8684 75.6086 84.5835 67.2387C84.6186 67.1309 84.695 67.0415 84.7961 66.99C84.8971 66.9386 85.0144 66.9293 85.1222 66.9643C85.2276 67.0023 85.3142 67.0794 85.364 67.1797C85.4139 67.2799 85.4231 67.3955 85.3898 67.5024C82.5274 76.3286 73.9549 78.5059 73.8705 78.5317C73.7603 78.556 73.6451 78.5365 73.5491 78.4774C73.453 78.4183 73.3838 78.3241 73.3559 78.2149L73.3692 78.0798C73.3703 77.9891 73.4006 77.9013 73.4557 77.8292C73.5107 77.7572 73.5875 77.7049 73.6747 77.68L73.672 77.7071ZM67.663 75.1974C67.6826 75.0865 67.7453 74.9878 67.8373 74.9228C67.9293 74.8578 68.0432 74.8317 68.1543 74.8502C83.983 77.4819 110.686 73.8922 133.081 66.1184C147.394 61.1502 176.742 39.0382 177.038 38.8013C177.126 38.7296 177.239 38.6955 177.351 38.7066C177.464 38.7177 177.568 38.7731 177.64 38.8606C177.675 38.9034 177.702 38.9528 177.718 39.0059C177.734 39.0591 177.74 39.1149 177.734 39.1701C177.729 39.2254 177.712 39.2791 177.686 39.328C177.66 39.3769 177.624 39.4202 177.581 39.4553C177.286 39.6786 147.826 61.882 133.387 66.8922C110.454 74.7972 84.2314 78.3524 68.0197 75.6624C67.9129 75.6434 67.8171 75.5852 67.7511 75.4991C67.6851 75.4131 67.6537 75.3055 67.663 75.1974ZM142.328 62.1518C142.346 62.0407 142.407 61.9412 142.498 61.8748C142.589 61.8084 142.702 61.7805 142.813 61.7971L169.986 66.1067C170.042 66.1148 170.095 66.1338 170.143 66.1627C170.191 66.1916 170.233 66.2297 170.266 66.2749C170.299 66.3201 170.322 66.3714 170.335 66.4258C170.348 66.4803 170.35 66.5368 170.341 66.592C170.323 66.7031 170.262 66.8026 170.171 66.869C170.081 66.9353 169.967 66.9633 169.856 66.9467L142.699 62.6114C142.592 62.5956 142.495 62.5391 142.428 62.4538C142.362 62.3685 142.331 62.2608 142.342 62.1531L142.328 62.1518ZM132.851 66.3072C132.907 66.2105 132.998 66.1395 133.106 66.1093C133.213 66.0791 133.328 66.0921 133.426 66.1456L155.897 78.8476C155.994 78.9024 156.066 78.9939 156.097 79.1018C156.127 79.2097 156.113 79.3252 156.058 79.423C156.003 79.5207 155.912 79.5926 155.804 79.6229C155.696 79.6533 155.581 79.6395 155.483 79.5846L133.012 66.8894C132.94 66.8493 132.881 66.7893 132.842 66.7165C132.803 66.6436 132.786 66.5611 132.793 66.4789C132.796 66.4086 132.817 66.3403 132.854 66.2802L132.851 66.3072ZM136.271 64.8296L142.277 40.3207C142.284 40.2608 142.304 40.2031 142.335 40.1513C142.366 40.0996 142.407 40.055 142.457 40.0205C142.506 39.986 142.562 39.9624 142.622 39.9511C142.681 39.9399 142.742 39.9414 142.801 39.9554C142.859 39.9694 142.914 39.9957 142.962 40.0325C143.01 40.0693 143.05 40.1158 143.078 40.169C143.107 40.2221 143.124 40.2807 143.128 40.3409C143.132 40.4011 143.124 40.4615 143.103 40.5182L137.098 65.0271C137.08 65.1375 137.019 65.2362 136.928 65.3014C136.837 65.3667 136.724 65.3931 136.613 65.375C136.503 65.3569 136.404 65.2957 136.339 65.2048C136.274 65.1139 136.247 65.0008 136.265 64.8904L136.271 64.8296ZM119.714 70.3542C119.792 70.2728 119.899 70.2255 120.011 70.2225C120.124 70.2196 120.234 70.2613 120.316 70.3385L136.299 85.5189C136.34 85.5575 136.373 85.6037 136.396 85.655C136.419 85.7063 136.432 85.7616 136.434 85.8179C136.436 85.8741 136.426 85.9302 136.406 85.9828C136.386 86.0354 136.356 86.0836 136.318 86.1246C136.279 86.1656 136.233 86.1986 136.182 86.2217C136.13 86.2449 136.075 86.2577 136.019 86.2594C135.963 86.2612 135.907 86.2518 135.854 86.2319C135.801 86.212 135.753 86.1819 135.712 86.1434L119.704 70.9333C119.658 70.8891 119.622 70.8349 119.599 70.7747C119.577 70.7146 119.569 70.6501 119.575 70.5862C119.59 70.4858 119.64 70.394 119.716 70.3272L119.714 70.3542ZM126.472 49.7608C126.584 49.7682 126.689 49.8194 126.764 49.9033C126.839 49.9873 126.877 50.0973 126.871 50.2096L125.985 68.8233C125.967 68.9267 125.913 69.0201 125.831 69.0857C125.749 69.1514 125.646 69.1848 125.541 69.1795C125.437 69.1742 125.338 69.1307 125.263 69.0571C125.188 68.9836 125.143 68.8852 125.136 68.7806L126.026 50.133C126.034 50.0209 126.085 49.9161 126.169 49.8414C126.253 49.7667 126.363 49.7281 126.475 49.7338L126.472 49.7608ZM111.867 57.1427C111.923 57.1417 111.979 57.1519 112.031 57.1728C112.084 57.1937 112.131 57.2248 112.171 57.2644C112.211 57.3039 112.243 57.3511 112.264 57.4031C112.286 57.4551 112.296 57.5109 112.296 57.5671L112.296 71.8949C112.296 71.9505 112.285 72.0056 112.264 72.057C112.242 72.1084 112.211 72.155 112.172 72.1943C112.132 72.2335 112.086 72.2646 112.034 72.2857C111.983 72.3067 111.928 72.3174 111.872 72.3171C111.76 72.3156 111.653 72.2704 111.574 72.1913C111.496 72.1121 111.451 72.0051 111.45 71.8934L111.443 57.5649L111.447 57.5244C111.45 57.4146 111.496 57.3105 111.575 57.2341C111.654 57.1578 111.76 57.1153 111.87 57.1157L111.867 57.1427ZM102.787 74.2255C102.858 74.1378 102.961 74.0819 103.074 74.0699C103.186 74.058 103.299 74.091 103.387 74.1618L113.297 82.2209C113.382 82.2942 113.435 82.3974 113.446 82.5091C113.457 82.6208 113.424 82.7322 113.354 82.8201C113.283 82.9078 113.18 82.9638 113.067 82.9757C112.955 82.9876 112.842 82.9546 112.754 82.8838L102.844 74.8247C102.79 74.7789 102.748 74.7207 102.721 74.6551C102.694 74.5895 102.683 74.5185 102.69 74.4479C102.694 74.3559 102.729 74.268 102.79 74.1985L102.787 74.2255ZM100.826 57.7804C100.937 57.793 101.039 57.848 101.111 57.9338C101.182 58.0196 101.218 58.1298 101.211 58.2413L99.7213 74.9399C99.7103 75.051 99.6556 75.1532 99.5693 75.224C99.483 75.2948 99.3721 75.3285 99.261 75.3175C99.205 75.3138 99.1503 75.2988 99.1003 75.2734C99.0503 75.2479 99.0059 75.2126 98.97 75.1695C98.934 75.1264 98.9072 75.0764 98.8912 75.0226C98.8751 74.9688 98.8702 74.9124 98.8766 74.8566L100.366 58.158C100.369 58.1007 100.383 58.0446 100.408 57.993C100.433 57.9414 100.468 57.8953 100.512 57.8576C100.555 57.8198 100.605 57.7911 100.66 57.7732C100.714 57.7553 100.772 57.7486 100.829 57.7534L100.826 57.7804ZM73.672 77.7071C73.7497 77.6806 81.8684 75.6086 84.5835 67.2387C84.6186 67.1309 84.695 67.0415 84.7961 66.99C84.8971 66.9386 85.0144 66.9293 85.1222 66.9643C85.2276 67.0023 85.3142 67.0794 85.364 67.1797C85.4139 67.2799 85.4231 67.3955 85.3898 67.5024C82.5274 76.3286 73.9549 78.5059 73.8705 78.5317C73.7603 78.556 73.6451 78.5365 73.5491 78.4774C73.453 78.4183 73.3838 78.3241 73.3559 78.2149L73.3692 78.0798C73.3703 77.9891 73.4006 77.9013 73.4557 77.8292C73.5107 77.7572 73.5875 77.7049 73.6747 77.68L73.672 77.7071Z" fill="white"/>
<path d="M96.6862 9.45996C106.343 19.0032 121.671 26.7851 138.055 30.0355C138.072 31.0603 138.14 36.7286 138.447 62.8284C138.856 97.6547 103.55 114.9 98.0827 117.542C92.7349 115.284 56.7477 98.5034 56.339 63.677C56.0324 37.5612 55.9643 31.9089 55.9473 30.8842C72.2462 27.2975 87.2678 19.2113 96.6862 9.45996Z" fill="#FF9900"/>
<path d="M96.822 15.7529C106.257 23.743 119.303 30.0037 133.627 33.3663L133.967 62.8766C134.121 76.3748 128.483 88.6241 117.191 99.2882C109.766 106.285 101.948 110.657 97.9802 112.626C97.8098 112.546 97.6225 112.45 97.4352 112.37L96.7539 15.833C96.7709 15.801 96.805 15.785 96.822 15.7529Z" fill="#1C1C4F"/>
<path d="M96.7547 15.835L97.4359 112.372C93.2803 110.387 85.7184 106.255 78.446 99.7065C66.8988 89.2826 60.9719 77.1454 60.8016 63.6472L60.4609 34.1368C74.648 30.4861 87.5067 23.9851 96.7547 15.835Z" fill="#131B41"/>
<path d="M77.6953 57.8232L77.8743 84.5267C77.8942 87.5 116.68 87.2569 116.66 84.2836L116.481 57.5801L77.6953 57.8232ZM92.3743 67.809C92.3544 65.3406 94.4827 63.321 97.1281 63.3023C99.7735 63.2836 101.941 65.2658 101.961 67.7529C101.981 69.5667 100.808 71.1376 99.1569 71.8481L99.2165 79.4403C99.2165 80.4501 98.3613 81.2916 97.2673 81.2916C96.1932 81.2916 95.2982 80.4688 95.2982 79.459L95.2385 71.8855C93.5478 71.1936 92.3743 69.6416 92.3743 67.809Z" fill="white"/>
<path d="M81.0773 55.8969L84.9956 55.8782L84.9758 54.083C84.936 47.8559 90.3063 42.7508 96.9695 42.7134C103.633 42.676 109.083 47.7063 109.122 53.9334L109.142 55.7286L113.061 55.7099L113.041 53.9147C112.981 45.6493 105.761 38.9921 96.9298 39.0482C88.1184 39.1043 80.9778 45.855 81.0375 54.1204L81.0773 55.8969Z" fill="white"/>
<ellipse cx="150.061" cy="98.0334" rx="23.6484" ry="1.71989" fill="#4F4F4F" fill-opacity="0.13"/>
</svg>
