<svg width="171" height="171" viewBox="0 0 171 171" fill="none" xmlns="http://www.w3.org/2000/svg">
<path d="M148.365 75.9723C155.6 94.1418 147.161 112.301 128.153 114.447C120.734 115.288 112.873 112.626 105.744 115.586C99.0572 118.364 93.7089 124.964 87.5573 129.034C74.4721 137.714 51.243 143.866 38.9484 129.522C33.563 123.239 30.9488 112.847 27.3864 105.47C23.2829 96.9885 16.7057 87.8403 18.7958 78.1638C22.3699 61.5653 39.8083 54.4914 54.102 50.4618C61.7913 48.2903 66.2047 47.2733 70.4926 40.9973C74.4555 35.1813 75.6873 27.6382 84.1719 26.5039C90.542 25.652 96.5168 30.9555 102.848 31.2089C109.98 31.4948 113.673 28.2949 121.075 32.0883C130.055 36.6926 131.204 44.092 135.209 52.2778C139.215 60.4636 144.964 67.4207 148.365 75.9723Z" fill="#B2CDFF" fill-opacity="0.3"/>
<ellipse cx="54.8794" cy="112.786" rx="17.1938" ry="1.25046" fill="#4F4F4F" fill-opacity="0.13"/>
<path d="M58.6895 72.6883C58.6895 72.6883 52.7687 74.4307 46.8649 64.8737C40.4995 54.5581 34.9622 41.4205 28.2494 43.9908C21.5367 46.5611 22.4672 56.0173 27.6085 64.7082C32.114 72.3152 44.8263 87.1317 63.3352 80.7489L58.6895 72.6883Z" fill="#FF9900"/>
<path d="M62.7811 79.7417L62.7325 79.7699C58.5999 81.2558 54.3598 80.9611 50.1364 78.9003C37.6068 72.7739 28.8689 52.8338 27.6721 49.1623C27.6473 49.0837 27.654 48.9985 27.6907 48.9247C27.7273 48.8509 27.7912 48.7941 27.8688 48.7664C27.9486 48.7426 28.0345 48.7503 28.1087 48.7879C28.183 48.8255 28.24 48.8901 28.268 48.9685C29.463 52.612 38.0738 72.3079 50.4096 78.3371C52.2597 79.3086 54.2915 79.885 56.3761 80.0298C58.4608 80.1745 60.5527 79.8845 62.5193 79.178C62.5583 79.164 62.5998 79.1579 62.6412 79.1601C62.6826 79.1623 62.7232 79.1727 62.7606 79.1907C62.7979 79.2088 62.8313 79.234 62.8588 79.2651C62.8863 79.2962 62.9073 79.3324 62.9207 79.3716C62.9449 79.4399 62.9442 79.5145 62.9186 79.5822C62.8931 79.6499 62.8444 79.7064 62.7811 79.7417Z" fill="white"/>
<path d="M77.2375 104.669C72.2979 108.502 63.5892 113.538 56.2686 112.493C48.9481 111.448 48.0213 107.432 49.1272 104.89C50.2331 102.347 50.9688 99.7524 45.8162 98.5196C40.6635 97.2869 32.3885 95.3064 26.2445 88.7002C20.1006 82.094 18.1949 76.8389 20.6725 73.2843C23.0755 69.8381 25.3641 71.7778 30.3048 75.6486C35.2455 79.5195 37.2772 72.5664 42.0733 71.8882C46.8694 71.2101 48.5192 74.4164 50.3153 76.9525C52.1113 79.4886 53.8228 79.4862 56.0241 78.2096C58.2254 76.933 61.1499 76.9283 62.6115 79.4487L77.2375 104.669Z" fill="#F8BFFF"/>
<path d="M72.1113 95.8321C72.0912 95.8507 72.0672 95.8646 72.041 95.8729C71.7708 95.9429 65.2923 97.5461 52.917 94.8139C39.7379 91.9046 28.8123 82.4122 28.7 82.3183C28.6397 82.2622 28.6035 82.1849 28.5989 82.1027C28.5944 82.0205 28.6218 81.9397 28.6755 81.8772C28.7299 81.8157 28.8063 81.778 28.8883 81.7724C28.9703 81.7668 29.0511 81.7937 29.1134 81.8473C29.2203 81.9443 40.0328 91.3288 53.0527 94.2004C65.2579 96.9011 71.817 95.2873 71.886 95.269C71.9258 95.2592 71.9672 95.2573 72.0078 95.2635C72.0484 95.2696 72.0874 95.2838 72.1225 95.305C72.1576 95.3262 72.1882 95.3542 72.2126 95.3872C72.2369 95.4203 72.2545 95.4578 72.2643 95.4977C72.2784 95.5625 72.2712 95.6301 72.2436 95.6904C72.216 95.7507 72.1696 95.8005 72.1113 95.8321Z" fill="white"/>
<path d="M56.2637 95.3876C56.2098 95.42 56.1471 95.4346 56.0845 95.4294C56.0218 95.4243 55.9624 95.3996 55.9145 95.3588C51.5938 91.909 45.6691 82.6026 45.4014 82.2158C45.3585 82.1453 45.3446 82.0609 45.3626 81.9804C45.3806 81.8999 45.4291 81.8295 45.498 81.784C45.5692 81.744 45.6526 81.7318 45.7323 81.7496C45.812 81.7674 45.8823 81.814 45.9298 81.8805C45.9862 81.9778 52.0472 91.4943 56.2884 94.8818C56.3208 94.9076 56.3477 94.9396 56.3676 94.9759C56.3875 95.0122 56.4 95.0521 56.4044 95.0932C56.4088 95.1344 56.4049 95.176 56.3931 95.2157C56.3813 95.2554 56.3617 95.2923 56.3354 95.3243C56.3148 95.3488 56.2906 95.3702 56.2637 95.3876Z" fill="white"/>
<path d="M59.9376 101.822C59.4412 102.115 58.9281 102.379 58.4009 102.612C58.3629 102.628 58.3221 102.637 58.2808 102.638C58.2394 102.638 58.1984 102.631 58.16 102.615C58.1215 102.6 58.0865 102.577 58.0569 102.548C58.0273 102.52 58.0036 102.485 57.9873 102.447C57.971 102.409 57.9623 102.368 57.9617 102.327C57.9612 102.286 57.9688 102.245 57.9841 102.206C57.9994 102.168 58.0221 102.133 58.0509 102.103C58.0798 102.074 58.1142 102.05 58.1522 102.034C58.2008 102.005 63.5687 99.6584 64.5138 95.9664C64.5213 95.924 64.5375 95.8836 64.5614 95.8477C64.5853 95.8119 64.6163 95.7813 64.6526 95.7581C64.6888 95.7348 64.7295 95.7192 64.772 95.7124C64.8145 95.7056 64.858 95.7076 64.8997 95.7184C64.9414 95.7292 64.9805 95.7484 65.0144 95.775C65.0483 95.8016 65.0763 95.8349 65.0968 95.8728C65.1172 95.9107 65.1296 95.9524 65.1331 95.9954C65.1366 96.0383 65.1313 96.0815 65.1173 96.1223C64.4467 98.8168 61.7008 100.8 59.9376 101.822Z" fill="white"/>
<path d="M118.015 86.7911C118.015 86.7911 134.741 95.3551 137.41 89.4622C140.192 83.3275 128.674 82.4746 123.049 82.1681C111.031 81.5041 108.675 82.6062 111.501 83.8819L118.015 86.7911ZM104.238 87.5113C101.967 85.3875 104.564 85.1078 115.72 89.6355C120.967 91.76 131.557 96.2963 126.932 101.198C122.5 105.905 109.448 92.3753 109.448 92.3753L104.238 87.5113ZM93.9062 90.1635C92.4913 88.2134 94.504 88.3771 102.382 93.4546C106.071 95.8372 113.519 100.843 109.287 103.923C105.205 106.878 97.1997 94.6452 97.1997 94.6452L93.9062 90.1635ZM81.6592 92.9245C80.2394 90.9739 82.257 91.1381 90.1299 96.2151C93.8188 98.5977 101.272 103.604 97.0347 106.683C92.9456 109.618 84.9365 97.4194 84.9365 97.4194L81.6592 92.9245ZM106.92 83.9561C105.517 86.7147 104.523 84.315 105.739 72.3361C106.293 66.7159 107.68 55.2647 113.683 58.3269C119.45 61.2617 110.128 77.5756 110.128 77.5756L106.92 83.9561ZM98.6191 86.4365C97.7941 89.4208 96.3401 87.2634 95.1503 75.2805C94.5879 69.6642 93.6626 58.1687 100.132 59.9722C106.37 61.7034 100.474 79.5456 100.474 79.5456L98.6191 86.4365ZM88.5167 89.1311C87.8885 91.6784 86.6118 89.8858 85.326 79.7834C84.7216 75.046 83.6691 65.3436 89.2031 66.7225C94.5296 68.0414 89.9433 83.2646 89.9433 83.2646L88.5167 89.1311ZM79.2182 91.0171C78.3252 93.4838 77.2443 91.5666 77.0385 81.3772C76.9434 76.6057 76.9234 66.8463 82.2818 68.7982C87.424 70.6793 81.2621 85.3304 81.2621 85.3304L79.2182 91.0171ZM117.215 79.8121C113.768 80.9604 114.571 77.9491 124.675 68.4389C129.415 63.9853 139.291 55.0875 142.964 63.2674C146.495 71.1209 125.133 77.0856 125.133 77.0856L117.215 79.8121ZM67.4997 89.4749C66.4373 90.9426 66.2342 89.3798 68.3631 82.3771C69.3567 79.0919 71.5023 72.4232 74.1835 75.014C76.7639 77.5205 69.9677 86.0771 69.9677 86.0771L67.4997 89.4749Z" fill="#46A834"/>
<path opacity="0.3" d="M118.015 86.7911C118.015 86.7911 134.741 95.3551 137.41 89.4622C140.192 83.3275 128.674 82.4746 123.049 82.1681C111.031 81.5041 108.675 82.6062 111.501 83.8819L118.015 86.7911ZM104.238 87.5113C101.967 85.3875 104.564 85.1078 115.72 89.6355C120.967 91.76 131.557 96.2963 126.932 101.198C122.5 105.905 109.448 92.3753 109.448 92.3753L104.238 87.5113ZM93.9062 90.1635C92.4913 88.2134 94.504 88.3771 102.382 93.4546C106.071 95.8372 113.519 100.843 109.287 103.923C105.205 106.878 97.1997 94.6452 97.1997 94.6452L93.9062 90.1635ZM81.6592 92.9245C80.2394 90.9739 82.257 91.1381 90.1299 96.2151C93.8188 98.5977 101.272 103.604 97.0347 106.683C92.9456 109.618 84.9365 97.4194 84.9365 97.4194L81.6592 92.9245ZM106.92 83.9561C105.517 86.7147 104.523 84.315 105.739 72.3361C106.293 66.7159 107.68 55.2647 113.683 58.3269C119.45 61.2617 110.128 77.5756 110.128 77.5756L106.92 83.9561ZM98.6191 86.4365C97.7941 89.4208 96.3401 87.2634 95.1503 75.2805C94.5879 69.6642 93.6626 58.1687 100.132 59.9722C106.37 61.7034 100.474 79.5456 100.474 79.5456L98.6191 86.4365ZM88.5167 89.1311C87.8885 91.6784 86.6118 89.8858 85.326 79.7834C84.7216 75.046 83.6691 65.3435 89.2031 66.7225C94.5296 68.0414 89.9433 83.2645 89.9433 83.2645L88.5167 89.1311ZM79.2182 91.0171C78.3252 93.4838 77.2443 91.5666 77.0385 81.3772C76.9434 76.6056 76.9234 66.8463 82.2818 68.7982C87.424 70.6793 81.2621 85.3304 81.2621 85.3304L79.2182 91.0171ZM117.215 79.8121C113.768 80.9604 114.571 77.9491 124.675 68.4389C129.415 63.9853 139.291 55.0875 142.964 63.2674C146.495 71.1209 125.133 77.0856 125.133 77.0856L117.215 79.8121ZM67.4997 89.4749C66.4373 90.9426 66.2342 89.3798 68.3631 82.3771C69.3567 79.0919 71.5023 72.4232 74.1835 75.014C76.7639 77.5205 69.9677 86.0771 69.9677 86.0771L67.4997 89.4749Z" fill="white"/>
<path d="M110.212 82.9714L129.956 86.1235L110.212 82.9714ZM103.285 86.1032L119.623 95.3334L103.285 86.1032ZM110.172 67.1186L105.795 84.9469L110.172 67.1186ZM93.6933 89.1061L105.29 100.136L93.6933 89.1061ZM97.7144 87.7664L98.3665 74.209L97.7144 87.7664ZM87.7656 90.0099L87.7609 79.5923L87.7656 90.0099ZM81.3987 91.8972L88.6017 97.7812L81.3987 91.8972ZM78.6189 92.2184L79.7017 80.0775L78.6189 92.2184ZM55.6206 92.4313C55.6349 92.3506 55.6804 92.2789 55.7473 92.2316C55.8142 92.1843 55.897 92.1653 55.9778 92.1788C67.4862 94.0922 86.9011 91.4823 103.183 85.8303C113.59 82.2181 134.927 66.1414 135.143 65.9691C135.207 65.917 135.288 65.8922 135.37 65.9003C135.452 65.9084 135.528 65.9486 135.58 66.0123C135.606 66.0434 135.625 66.0793 135.637 66.1179C135.649 66.1565 135.653 66.1971 135.649 66.2373C135.645 66.2775 135.633 66.3165 135.614 66.3521C135.595 66.3876 135.569 66.4191 135.537 66.4446C135.323 66.607 113.904 82.7501 103.406 86.3929C86.7321 92.1403 67.6668 94.7251 55.8799 92.7693C55.8023 92.7555 55.7327 92.7132 55.6847 92.6506C55.6367 92.588 55.6138 92.5098 55.6206 92.4313ZM109.906 82.9463C109.92 82.8656 109.964 82.7932 110.03 82.7449C110.096 82.6967 110.178 82.6764 110.259 82.6884L130.016 85.8218C130.056 85.8277 130.095 85.8415 130.13 85.8625C130.164 85.8835 130.195 85.9112 130.219 85.944C130.243 85.9769 130.26 86.0142 130.269 86.0538C130.279 86.0934 130.28 86.1345 130.274 86.1746C130.261 86.2554 130.216 86.3277 130.15 86.376C130.084 86.4242 130.002 86.4445 129.921 86.4325L110.176 83.2804C110.098 83.2689 110.028 83.2279 109.979 83.1659C109.931 83.1038 109.908 83.0255 109.916 82.9473L109.906 82.9463ZM103.016 85.9676C103.057 85.8972 103.123 85.8456 103.201 85.8236C103.279 85.8017 103.363 85.8112 103.434 85.8501L119.772 95.0851C119.843 95.125 119.895 95.1915 119.917 95.27C119.939 95.3484 119.929 95.4324 119.889 95.5035C119.849 95.5745 119.783 95.6268 119.704 95.6489C119.626 95.6709 119.542 95.6609 119.471 95.621L103.133 86.3908C103.081 86.3617 103.038 86.3181 103.009 86.2651C102.981 86.2122 102.969 86.1522 102.974 86.0924C102.976 86.0413 102.991 85.9916 103.018 85.9479L103.016 85.9676ZM105.503 84.8932L109.869 67.0738C109.874 67.0302 109.889 66.9883 109.911 66.9507C109.934 66.9131 109.964 66.8806 110 66.8556C110.036 66.8305 110.077 66.8133 110.12 66.8051C110.163 66.797 110.207 66.798 110.25 66.8082C110.293 66.8184 110.333 66.8375 110.368 66.8643C110.402 66.891 110.431 66.9249 110.452 66.9635C110.473 67.0021 110.485 67.0447 110.488 67.0885C110.491 67.1322 110.485 67.1762 110.47 67.2174L106.104 85.0368C106.091 85.1171 106.046 85.1888 105.98 85.2363C105.914 85.2837 105.832 85.303 105.752 85.2898C105.671 85.2766 105.6 85.2321 105.552 85.166C105.505 85.0999 105.485 85.0177 105.499 84.9374L105.503 84.8932ZM93.4646 88.91C93.5213 88.8508 93.5991 88.8164 93.681 88.8142C93.763 88.8121 93.8425 88.8424 93.9022 88.8986L105.523 99.9356C105.583 99.9922 105.618 100.07 105.621 100.153C105.624 100.236 105.593 100.316 105.537 100.376C105.48 100.436 105.402 100.471 105.319 100.474C105.237 100.477 105.157 100.446 105.096 100.39L93.4578 89.331C93.4239 89.2989 93.3978 89.2594 93.3815 89.2157C93.3651 89.172 93.359 89.1251 93.3636 89.0786C93.3745 89.0056 93.411 88.9389 93.4665 88.8903L93.4646 88.91ZM98.3784 73.9373C98.4599 73.9427 98.5361 73.9799 98.5904 74.041C98.6447 74.102 98.6728 74.182 98.6687 74.2636L98.0239 87.7969C98.0113 87.8721 97.9714 87.94 97.912 87.9877C97.8526 88.0354 97.7777 88.0597 97.7016 88.0559C97.6255 88.052 97.5534 88.0204 97.4991 87.9669C97.4448 87.9134 97.412 87.8419 97.4069 87.7658L98.0541 74.208C98.0594 74.1264 98.0966 74.0503 98.1577 73.9959C98.2187 73.9416 98.2987 73.9135 98.3803 73.9177L98.3784 73.9373ZM87.7595 79.3044C87.8004 79.3037 87.841 79.3111 87.879 79.3263C87.9169 79.3414 87.9515 79.3641 87.9805 79.3929C88.0096 79.4216 88.0326 79.4559 88.0482 79.4937C88.0638 79.5315 88.0717 79.5721 88.0713 79.613L88.0711 90.0301C88.0713 90.0705 88.0634 90.1106 88.0479 90.148C88.0325 90.1853 88.0097 90.2193 87.9811 90.2478C87.9525 90.2763 87.9185 90.2989 87.881 90.3142C87.8436 90.3296 87.8035 90.3373 87.7631 90.3371C87.6818 90.336 87.6042 90.3032 87.5468 90.2456C87.4895 90.188 87.4569 90.1103 87.4562 90.029L87.4514 79.6114L87.4543 79.5819C87.4567 79.5021 87.4901 79.4264 87.5474 79.3709C87.6048 79.3154 87.6816 79.2845 87.7614 79.2848L87.7595 79.3044ZM81.1577 91.7246C81.2096 91.6608 81.2845 91.6202 81.3662 91.6115C81.448 91.6028 81.5298 91.6269 81.5939 91.6783L88.7993 97.5378C88.8611 97.591 88.8999 97.6661 88.9076 97.7473C88.9153 97.8285 88.8913 97.9095 88.8407 97.9734C88.7888 98.0372 88.7139 98.0779 88.6321 98.0865C88.5504 98.0952 88.4686 98.0712 88.4045 98.0197L81.1991 92.1603C81.1598 92.1269 81.1292 92.0846 81.1097 92.037C81.0902 91.9893 81.0825 91.9376 81.0872 91.8863C81.0902 91.8194 81.1157 91.7555 81.1597 91.705L81.1577 91.7246ZM79.7322 79.768C79.813 79.7772 79.8871 79.8172 79.9391 79.8796C79.9912 79.942 80.0172 80.0221 80.0117 80.1031L78.9288 92.244C78.9209 92.3248 78.8811 92.3991 78.8184 92.4506C78.7556 92.5021 78.675 92.5265 78.5942 92.5186C78.5535 92.5159 78.5137 92.505 78.4774 92.4865C78.441 92.468 78.4088 92.4423 78.3826 92.4109C78.3565 92.3796 78.337 92.3433 78.3253 92.3042C78.3136 92.2651 78.3101 92.224 78.3147 92.1835L79.3976 80.0426C79.3997 80.001 79.4102 79.9601 79.4284 79.9226C79.4466 79.8851 79.4721 79.8516 79.5035 79.8242C79.5349 79.7967 79.5715 79.7759 79.6112 79.7628C79.6508 79.7498 79.6926 79.7449 79.7342 79.7484L79.7322 79.768ZM59.9895 94.2559C60.046 94.2367 65.9487 92.7302 67.9228 86.6448C67.9483 86.5664 68.0039 86.5014 68.0773 86.464C68.1508 86.4266 68.2361 86.4199 68.3145 86.4453C68.3911 86.4729 68.454 86.529 68.4903 86.6019C68.5266 86.6748 68.5333 86.7588 68.5091 86.8365C66.4279 93.2537 60.1952 94.8367 60.1338 94.8555C60.0537 94.8731 59.9699 94.859 59.9001 94.816C59.8303 94.773 59.7799 94.7046 59.7596 94.6251L59.7693 94.5269C59.7701 94.461 59.7922 94.3971 59.8322 94.3447C59.8722 94.2924 59.9281 94.2543 59.9914 94.2363L59.9895 94.2559ZM55.6206 92.4313C55.6349 92.3506 55.6804 92.2789 55.7473 92.2316C55.8142 92.1843 55.897 92.1653 55.9778 92.1788C67.4862 94.0922 86.9011 91.4823 103.183 85.8303C113.59 82.2181 134.927 66.1414 135.143 65.9691C135.207 65.917 135.288 65.8922 135.37 65.9003C135.452 65.9084 135.528 65.9486 135.58 66.0123C135.606 66.0434 135.625 66.0793 135.637 66.1179C135.649 66.1565 135.653 66.1971 135.649 66.2373C135.645 66.2775 135.633 66.3165 135.614 66.3521C135.595 66.3876 135.569 66.4191 135.537 66.4446C135.323 66.607 113.904 82.7501 103.406 86.3929C86.7321 92.1403 67.6668 94.7251 55.8799 92.7693C55.8023 92.7555 55.7327 92.7132 55.6847 92.6506C55.6367 92.588 55.6138 92.5098 55.6206 92.4313ZM109.906 82.9463C109.92 82.8656 109.964 82.7932 110.03 82.7449C110.096 82.6967 110.178 82.6764 110.259 82.6884L130.016 85.8218C130.056 85.8277 130.095 85.8415 130.13 85.8625C130.164 85.8835 130.195 85.9112 130.219 85.944C130.243 85.9769 130.26 86.0142 130.269 86.0538C130.279 86.0934 130.28 86.1345 130.274 86.1746C130.261 86.2554 130.216 86.3277 130.15 86.376C130.084 86.4242 130.002 86.4445 129.921 86.4325L110.176 83.2804C110.098 83.2689 110.028 83.2279 109.979 83.1659C109.931 83.1038 109.908 83.0255 109.916 82.9473L109.906 82.9463ZM103.016 85.9676C103.057 85.8972 103.123 85.8456 103.201 85.8236C103.279 85.8017 103.363 85.8112 103.434 85.8501L119.772 95.0851C119.843 95.125 119.895 95.1915 119.917 95.27C119.939 95.3484 119.929 95.4324 119.889 95.5035C119.849 95.5745 119.783 95.6268 119.704 95.6489C119.626 95.6709 119.542 95.6609 119.471 95.621L103.133 86.3908C103.081 86.3617 103.038 86.3181 103.009 86.2651C102.981 86.2122 102.969 86.1522 102.974 86.0924C102.976 86.0413 102.991 85.9916 103.018 85.9479L103.016 85.9676ZM105.503 84.8932L109.869 67.0738C109.874 67.0302 109.889 66.9883 109.911 66.9507C109.934 66.9131 109.964 66.8806 110 66.8556C110.036 66.8305 110.077 66.8133 110.12 66.8051C110.163 66.797 110.207 66.798 110.25 66.8082C110.293 66.8184 110.333 66.8375 110.368 66.8643C110.402 66.891 110.431 66.9249 110.452 66.9635C110.473 67.0021 110.485 67.0447 110.488 67.0885C110.491 67.1322 110.485 67.1762 110.47 67.2174L106.104 85.0368C106.091 85.1171 106.046 85.1888 105.98 85.2363C105.914 85.2837 105.832 85.303 105.752 85.2898C105.671 85.2766 105.6 85.2321 105.552 85.166C105.505 85.0999 105.485 85.0177 105.499 84.9374L105.503 84.8932ZM93.4646 88.91C93.5213 88.8508 93.5991 88.8164 93.681 88.8142C93.763 88.8121 93.8425 88.8424 93.9022 88.8986L105.523 99.9356C105.553 99.9636 105.577 99.9972 105.594 100.035C105.61 100.072 105.62 100.112 105.621 100.153C105.622 100.194 105.615 100.235 105.601 100.273C105.587 100.311 105.565 100.346 105.537 100.376C105.509 100.406 105.475 100.43 105.438 100.447C105.4 100.463 105.36 100.473 105.319 100.474C105.278 100.475 105.238 100.468 105.199 100.454C105.161 100.439 105.126 100.418 105.096 100.39L93.4578 89.331C93.4239 89.2989 93.3978 89.2594 93.3815 89.2157C93.3651 89.172 93.359 89.1251 93.3636 89.0786C93.3745 89.0056 93.411 88.9389 93.4665 88.8903L93.4646 88.91ZM98.3784 73.9373C98.4599 73.9427 98.5361 73.9799 98.5904 74.041C98.6447 74.102 98.6728 74.182 98.6687 74.2636L98.0239 87.7969C98.0113 87.8721 97.9714 87.94 97.912 87.9877C97.8526 88.0354 97.7777 88.0597 97.7016 88.0559C97.6255 88.052 97.5534 88.0204 97.4991 87.9669C97.4448 87.9134 97.412 87.8419 97.4069 87.7658L98.0541 74.208C98.0594 74.1264 98.0966 74.0503 98.1577 73.9959C98.2187 73.9416 98.2987 73.9135 98.3803 73.9177L98.3784 73.9373ZM87.7595 79.3044C87.8004 79.3037 87.841 79.3111 87.879 79.3263C87.9169 79.3414 87.9515 79.3641 87.9805 79.3929C88.0096 79.4216 88.0326 79.4559 88.0482 79.4937C88.0638 79.5315 88.0717 79.5721 88.0713 79.613L88.0711 90.0301C88.0713 90.0705 88.0634 90.1106 88.0479 90.148C88.0325 90.1853 88.0097 90.2193 87.9811 90.2478C87.9525 90.2763 87.9185 90.2989 87.881 90.3142C87.8436 90.3296 87.8035 90.3373 87.7631 90.3371C87.6818 90.336 87.6042 90.3032 87.5468 90.2456C87.4895 90.188 87.4569 90.1103 87.4562 90.029L87.4514 79.6114L87.4543 79.5819C87.4567 79.5021 87.4901 79.4264 87.5474 79.3709C87.6048 79.3154 87.6816 79.2845 87.7614 79.2848L87.7595 79.3044ZM81.1577 91.7246C81.2096 91.6608 81.2845 91.6202 81.3662 91.6115C81.448 91.6028 81.5298 91.6269 81.5939 91.6783L88.7993 97.5378C88.8611 97.591 88.8999 97.6661 88.9076 97.7473C88.9153 97.8285 88.8913 97.9095 88.8407 97.9734C88.7888 98.0372 88.7139 98.0779 88.6321 98.0865C88.5504 98.0952 88.4686 98.0712 88.4045 98.0197L81.1991 92.1603C81.1598 92.1269 81.1292 92.0846 81.1097 92.037C81.0902 91.9893 81.0825 91.9376 81.0872 91.8863C81.0902 91.8194 81.1157 91.7555 81.1597 91.705L81.1577 91.7246ZM79.7322 79.768C79.813 79.7772 79.8871 79.8172 79.9391 79.8796C79.9912 79.942 80.0172 80.0221 80.0117 80.1031L78.9288 92.244C78.9209 92.3248 78.8811 92.3991 78.8184 92.4506C78.7556 92.5021 78.675 92.5265 78.5942 92.5186C78.5535 92.5159 78.5137 92.505 78.4774 92.4865C78.441 92.468 78.4088 92.4423 78.3826 92.4109C78.3565 92.3796 78.337 92.3433 78.3253 92.3042C78.3136 92.2651 78.3101 92.224 78.3147 92.1835L79.3976 80.0426C79.3997 80.001 79.4102 79.9601 79.4284 79.9226C79.4466 79.8851 79.4721 79.8516 79.5035 79.8242C79.5349 79.7967 79.5715 79.7759 79.6112 79.7628C79.6508 79.7498 79.6926 79.7449 79.7342 79.7484L79.7322 79.768ZM59.9895 94.2559C60.046 94.2367 65.9487 92.7302 67.9228 86.6448C67.9483 86.5664 68.0039 86.5014 68.0773 86.464C68.1508 86.4266 68.2361 86.4199 68.3145 86.4453C68.3911 86.4729 68.454 86.529 68.4903 86.6019C68.5266 86.6748 68.5333 86.7588 68.5091 86.8365C66.4279 93.2537 60.1952 94.8367 60.1338 94.8555C60.0537 94.8731 59.9699 94.859 59.9001 94.816C59.8303 94.773 59.7799 94.7046 59.7596 94.6251L59.7693 94.5269C59.7701 94.461 59.7922 94.3971 59.8322 94.3447C59.8722 94.2924 59.9281 94.2543 59.9914 94.2363L59.9895 94.2559Z" fill="#46A834"/>
<path opacity="0.2" d="M55.6206 92.4313C55.6349 92.3506 55.6804 92.2789 55.7473 92.2316C55.8142 92.1843 55.897 92.1653 55.9778 92.1788C67.4862 94.0922 86.9011 91.4823 103.183 85.8303C113.59 82.2181 134.927 66.1414 135.143 65.9692C135.207 65.917 135.288 65.8922 135.37 65.9003C135.452 65.9084 135.528 65.9486 135.58 66.0123C135.606 66.0434 135.625 66.0793 135.637 66.1179C135.649 66.1565 135.653 66.1971 135.649 66.2373C135.645 66.2775 135.633 66.3165 135.614 66.3521C135.595 66.3877 135.569 66.4191 135.537 66.4446C135.323 66.607 113.904 82.7501 103.406 86.3929C86.7321 92.1403 67.6668 94.7251 55.8799 92.7693C55.8023 92.7555 55.7327 92.7132 55.6847 92.6506C55.6367 92.5881 55.6138 92.5098 55.6206 92.4313ZM109.906 82.9463C109.92 82.8656 109.964 82.7932 110.03 82.7449C110.096 82.6967 110.178 82.6764 110.259 82.6884L130.016 85.8218C130.056 85.8277 130.095 85.8415 130.13 85.8625C130.164 85.8835 130.195 85.9112 130.219 85.9441C130.243 85.9769 130.26 86.0142 130.269 86.0538C130.279 86.0934 130.28 86.1345 130.274 86.1746C130.261 86.2554 130.216 86.3277 130.15 86.376C130.084 86.4242 130.002 86.4446 129.921 86.4325L110.176 83.2805C110.098 83.269 110.028 83.2279 109.979 83.1659C109.931 83.1038 109.908 83.0256 109.916 82.9473L109.906 82.9463ZM103.016 85.9676C103.057 85.8972 103.123 85.8456 103.201 85.8236C103.279 85.8017 103.363 85.8112 103.434 85.8501L119.772 95.0851C119.843 95.125 119.895 95.1915 119.917 95.27C119.939 95.3484 119.929 95.4324 119.889 95.5035C119.849 95.5745 119.783 95.6268 119.704 95.6489C119.626 95.6709 119.542 95.6609 119.471 95.621L103.133 86.3908C103.081 86.3617 103.038 86.3181 103.009 86.2651C102.981 86.2122 102.969 86.1522 102.974 86.0924C102.976 86.0413 102.991 85.9916 103.018 85.9479L103.016 85.9676ZM105.503 84.8932L109.869 67.0738C109.874 67.0303 109.889 66.9883 109.911 66.9507C109.934 66.9131 109.964 66.8807 110 66.8556C110.036 66.8305 110.077 66.8133 110.12 66.8051C110.163 66.797 110.207 66.798 110.25 66.8082C110.293 66.8184 110.333 66.8375 110.368 66.8643C110.402 66.8911 110.431 66.9249 110.452 66.9635C110.473 67.0021 110.485 67.0447 110.488 67.0885C110.491 67.1323 110.485 67.1762 110.47 67.2174L106.104 85.0368C106.091 85.1171 106.046 85.1888 105.98 85.2363C105.914 85.2837 105.832 85.303 105.752 85.2898C105.671 85.2766 105.6 85.2321 105.552 85.166C105.505 85.0999 105.485 85.0177 105.499 84.9374L105.503 84.8932ZM93.4646 88.91C93.5213 88.8508 93.5991 88.8164 93.681 88.8142C93.763 88.8121 93.8425 88.8424 93.9022 88.8986L105.523 99.9356C105.583 99.9922 105.618 100.07 105.621 100.153C105.624 100.236 105.593 100.316 105.537 100.376C105.48 100.436 105.402 100.471 105.319 100.474C105.237 100.477 105.156 100.446 105.096 100.39L93.4578 89.331C93.4239 89.2989 93.3978 89.2594 93.3815 89.2157C93.3651 89.172 93.359 89.1251 93.3636 89.0786C93.3745 89.0056 93.411 88.9389 93.4665 88.8903L93.4646 88.91ZM98.3784 73.9373C98.4599 73.9427 98.5361 73.9799 98.5904 74.041C98.6447 74.102 98.6728 74.182 98.6687 74.2636L98.0239 87.7969C98.0113 87.8721 97.9714 87.94 97.912 87.9877C97.8526 88.0354 97.7777 88.0597 97.7016 88.0559C97.6255 88.052 97.5534 88.0204 97.4991 87.9669C97.4448 87.9134 97.412 87.8419 97.4069 87.7658L98.0541 74.208C98.0594 74.1264 98.0966 74.0503 98.1577 73.9959C98.2187 73.9416 98.2987 73.9135 98.3803 73.9177L98.3784 73.9373ZM87.7595 79.3044C87.8004 79.3037 87.841 79.3111 87.879 79.3263C87.9169 79.3415 87.9515 79.3641 87.9805 79.3929C88.0096 79.4216 88.0326 79.4559 88.0482 79.4937C88.0638 79.5315 88.0717 79.5721 88.0713 79.613L88.0711 90.0301C88.0713 90.0705 88.0634 90.1106 88.0479 90.148C88.0325 90.1853 88.0097 90.2193 87.9811 90.2478C87.9525 90.2763 87.9184 90.2989 87.881 90.3142C87.8436 90.3296 87.8035 90.3373 87.7631 90.3371C87.6818 90.336 87.6042 90.3032 87.5468 90.2456C87.4895 90.188 87.4569 90.1103 87.4561 90.029L87.4514 79.6114L87.4543 79.5819C87.4567 79.5021 87.4901 79.4264 87.5474 79.3709C87.6048 79.3154 87.6816 79.2845 87.7614 79.2848L87.7595 79.3044ZM81.1577 91.7246C81.2096 91.6608 81.2845 91.6202 81.3662 91.6115C81.448 91.6028 81.5298 91.6269 81.5939 91.6783L88.7993 97.5378C88.8611 97.591 88.8999 97.6661 88.9076 97.7473C88.9153 97.8285 88.8913 97.9095 88.8407 97.9734C88.7888 98.0372 88.7139 98.0779 88.6321 98.0865C88.5504 98.0952 88.4686 98.0712 88.4045 98.0197L81.1991 92.1603C81.1598 92.1269 81.1292 92.0846 81.1097 92.037C81.0902 91.9893 81.0825 91.9376 81.0872 91.8863C81.0902 91.8194 81.1157 91.7555 81.1597 91.705L81.1577 91.7246ZM79.7322 79.768C79.813 79.7772 79.8871 79.8172 79.9391 79.8796C79.9912 79.942 80.0172 80.0221 80.0117 80.1032L78.9288 92.244C78.9209 92.3248 78.8811 92.3991 78.8184 92.4506C78.7556 92.5021 78.675 92.5265 78.5942 92.5186C78.5535 92.5159 78.5137 92.505 78.4774 92.4865C78.441 92.468 78.4087 92.4423 78.3826 92.4109C78.3565 92.3796 78.337 92.3433 78.3253 92.3042C78.3136 92.2651 78.31 92.224 78.3147 92.1835L79.3976 80.0426C79.3997 80.001 79.4102 79.9602 79.4284 79.9226C79.4466 79.8851 79.4721 79.8516 79.5035 79.8242C79.5349 79.7967 79.5715 79.7759 79.6112 79.7628C79.6508 79.7498 79.6926 79.7449 79.7342 79.7484L79.7322 79.768ZM59.9895 94.2559C60.046 94.2367 65.9487 92.7302 67.9228 86.6448C67.9483 86.5664 68.0039 86.5014 68.0773 86.464C68.1508 86.4266 68.2361 86.4199 68.3145 86.4453C68.3911 86.4729 68.454 86.529 68.4903 86.6019C68.5266 86.6748 68.5333 86.7588 68.509 86.8365C66.4279 93.2537 60.1952 94.8367 60.1338 94.8555C60.0537 94.8731 59.9699 94.859 59.9001 94.816C59.8303 94.773 59.7799 94.7046 59.7596 94.6251L59.7693 94.5269C59.7701 94.461 59.7922 94.3971 59.8322 94.3447C59.8722 94.2924 59.9281 94.2543 59.9914 94.2363L59.9895 94.2559ZM55.6206 92.4313C55.6349 92.3506 55.6804 92.2789 55.7473 92.2316C55.8142 92.1843 55.897 92.1653 55.9778 92.1788C67.4862 94.0922 86.9011 91.4823 103.183 85.8303C113.59 82.2181 134.927 66.1414 135.143 65.9692C135.207 65.917 135.288 65.8922 135.37 65.9003C135.452 65.9084 135.528 65.9486 135.58 66.0123C135.606 66.0434 135.625 66.0793 135.637 66.1179C135.649 66.1565 135.653 66.1971 135.649 66.2373C135.645 66.2775 135.633 66.3165 135.614 66.3521C135.595 66.3877 135.569 66.4191 135.537 66.4446C135.323 66.607 113.904 82.7501 103.406 86.3929C86.7321 92.1403 67.6668 94.7251 55.8799 92.7693C55.8023 92.7555 55.7327 92.7132 55.6847 92.6506C55.6367 92.5881 55.6138 92.5098 55.6206 92.4313ZM109.906 82.9463C109.92 82.8656 109.964 82.7932 110.03 82.7449C110.096 82.6967 110.178 82.6764 110.259 82.6884L130.016 85.8218C130.056 85.8277 130.095 85.8415 130.13 85.8625C130.164 85.8835 130.195 85.9112 130.219 85.9441C130.243 85.9769 130.26 86.0142 130.269 86.0538C130.279 86.0934 130.28 86.1345 130.274 86.1746C130.261 86.2554 130.216 86.3277 130.15 86.376C130.084 86.4242 130.002 86.4446 129.921 86.4325L110.176 83.2805C110.098 83.269 110.028 83.2279 109.979 83.1659C109.931 83.1038 109.908 83.0256 109.916 82.9473L109.906 82.9463ZM103.016 85.9676C103.057 85.8972 103.123 85.8456 103.201 85.8236C103.279 85.8017 103.363 85.8112 103.434 85.8501L119.772 95.0851C119.843 95.125 119.895 95.1915 119.917 95.27C119.939 95.3484 119.929 95.4324 119.889 95.5035C119.849 95.5745 119.783 95.6268 119.704 95.6489C119.626 95.6709 119.542 95.6609 119.471 95.621L103.133 86.3908C103.081 86.3617 103.038 86.3181 103.009 86.2651C102.981 86.2122 102.969 86.1522 102.974 86.0924C102.976 86.0413 102.991 85.9916 103.018 85.9479L103.016 85.9676ZM105.503 84.8932L109.869 67.0738C109.874 67.0303 109.889 66.9883 109.911 66.9507C109.934 66.9131 109.964 66.8807 110 66.8556C110.036 66.8305 110.077 66.8133 110.12 66.8051C110.163 66.797 110.207 66.798 110.25 66.8082C110.293 66.8184 110.333 66.8375 110.368 66.8643C110.402 66.8911 110.431 66.9249 110.452 66.9635C110.473 67.0021 110.485 67.0447 110.488 67.0885C110.491 67.1323 110.485 67.1762 110.47 67.2174L106.104 85.0368C106.091 85.1171 106.046 85.1888 105.98 85.2363C105.914 85.2837 105.832 85.303 105.752 85.2898C105.671 85.2766 105.6 85.2321 105.552 85.166C105.505 85.0999 105.485 85.0177 105.499 84.9374L105.503 84.8932ZM93.4646 88.91C93.5213 88.8508 93.5991 88.8164 93.681 88.8142C93.763 88.8121 93.8425 88.8424 93.9022 88.8986L105.523 99.9356C105.553 99.9636 105.577 99.9972 105.594 100.035C105.61 100.072 105.62 100.112 105.621 100.153C105.622 100.194 105.615 100.235 105.601 100.273C105.587 100.311 105.565 100.346 105.537 100.376C105.509 100.406 105.475 100.43 105.438 100.447C105.4 100.463 105.36 100.473 105.319 100.474C105.278 100.475 105.238 100.468 105.199 100.454C105.161 100.439 105.126 100.418 105.096 100.39L93.4578 89.331C93.4239 89.2989 93.3978 89.2594 93.3815 89.2157C93.3651 89.172 93.359 89.1251 93.3636 89.0786C93.3745 89.0056 93.411 88.9389 93.4665 88.8903L93.4646 88.91ZM98.3784 73.9373C98.4599 73.9427 98.5361 73.9799 98.5904 74.041C98.6447 74.102 98.6728 74.182 98.6687 74.2636L98.0239 87.7969C98.0113 87.8721 97.9714 87.94 97.912 87.9877C97.8526 88.0354 97.7777 88.0597 97.7016 88.0559C97.6255 88.052 97.5534 88.0204 97.4991 87.9669C97.4448 87.9134 97.412 87.8419 97.4069 87.7658L98.0541 74.208C98.0594 74.1264 98.0966 74.0503 98.1577 73.9959C98.2187 73.9416 98.2987 73.9135 98.3803 73.9177L98.3784 73.9373ZM87.7595 79.3044C87.8004 79.3037 87.841 79.3111 87.879 79.3263C87.9169 79.3415 87.9515 79.3641 87.9805 79.3929C88.0096 79.4216 88.0326 79.4559 88.0482 79.4937C88.0638 79.5315 88.0717 79.5721 88.0713 79.613L88.0711 90.0301C88.0713 90.0705 88.0634 90.1106 88.0479 90.148C88.0325 90.1853 88.0097 90.2193 87.9811 90.2478C87.9525 90.2763 87.9184 90.2989 87.881 90.3142C87.8436 90.3296 87.8035 90.3373 87.7631 90.3371C87.6818 90.336 87.6042 90.3032 87.5468 90.2456C87.4895 90.188 87.4569 90.1103 87.4561 90.029L87.4514 79.6114L87.4543 79.5819C87.4567 79.5021 87.4901 79.4264 87.5474 79.3709C87.6048 79.3154 87.6816 79.2845 87.7614 79.2848L87.7595 79.3044ZM81.1577 91.7246C81.2096 91.6608 81.2845 91.6202 81.3662 91.6115C81.448 91.6028 81.5298 91.6269 81.5939 91.6783L88.7993 97.5378C88.8611 97.591 88.8999 97.6661 88.9076 97.7473C88.9153 97.8285 88.8913 97.9095 88.8407 97.9734C88.7888 98.0372 88.7139 98.0779 88.6321 98.0865C88.5504 98.0952 88.4686 98.0712 88.4045 98.0197L81.1991 92.1603C81.1598 92.1269 81.1292 92.0846 81.1097 92.037C81.0902 91.9893 81.0825 91.9376 81.0872 91.8863C81.0902 91.8194 81.1157 91.7555 81.1597 91.705L81.1577 91.7246ZM79.7322 79.768C79.813 79.7772 79.8871 79.8172 79.9391 79.8796C79.9912 79.942 80.0172 80.0221 80.0117 80.1032L78.9288 92.244C78.9209 92.3248 78.8811 92.3991 78.8184 92.4506C78.7556 92.5021 78.675 92.5265 78.5942 92.5186C78.5535 92.5159 78.5137 92.505 78.4774 92.4865C78.441 92.468 78.4087 92.4423 78.3826 92.4109C78.3565 92.3796 78.337 92.3433 78.3253 92.3042C78.3136 92.2651 78.31 92.224 78.3147 92.1835L79.3976 80.0426C79.3997 80.001 79.4102 79.9602 79.4284 79.9226C79.4466 79.8851 79.4721 79.8516 79.5035 79.8242C79.5349 79.7967 79.5715 79.7759 79.6112 79.7628C79.6508 79.7498 79.6926 79.7449 79.7342 79.7484L79.7322 79.768ZM59.9895 94.2559C60.046 94.2367 65.9487 92.7302 67.9228 86.6448C67.9483 86.5664 68.0039 86.5014 68.0773 86.464C68.1508 86.4266 68.2361 86.4199 68.3145 86.4453C68.3911 86.4729 68.454 86.529 68.4903 86.6019C68.5266 86.6748 68.5333 86.7588 68.509 86.8365C66.4279 93.2537 60.1952 94.8367 60.1338 94.8555C60.0537 94.8731 59.9699 94.859 59.9001 94.816C59.8303 94.773 59.7799 94.7046 59.7596 94.6251L59.7693 94.5269C59.7701 94.461 59.7922 94.3971 59.8322 94.3447C59.8722 94.2924 59.9281 94.2543 59.9914 94.2363L59.9895 94.2559Z" fill="white"/>
<ellipse cx="115.528" cy="109.034" rx="17.1938" ry="1.25046" fill="#4F4F4F" fill-opacity="0.13"/>
<path d="M50.6897 71.2555L118.795 70.7617L120.692 117.065L50.1699 116.412L50.6897 71.2555Z" fill="#1C1C4F"/>
<path d="M50.6875 71.2554L82.9227 45.1732C83.585 44.638 84.4117 44.3475 85.2632 44.3506C86.1147 44.3538 86.9392 44.6504 87.5975 45.1906L118.796 70.7616" fill="#1C1C4F"/>
<g opacity="0.3">
<path opacity="0.3" d="M50.6875 71.2554L82.9227 45.1732C83.585 44.638 84.4117 44.3475 85.2632 44.3506C86.1147 44.3538 86.9392 44.6504 87.5975 45.1906L118.796 70.7616" fill="black"/>
</g>
<path d="M50.1709 116.412C50.0871 116.331 55.5386 110.377 62.35 103.115C69.1615 95.8532 74.7487 90.0293 74.8353 90.1072C74.9219 90.1852 69.4676 96.1391 62.6561 103.404C55.8447 110.669 50.2575 116.49 50.1709 116.412Z" fill="#263238"/>
<path d="M120.693 117.065C120.606 117.143 115.296 111.31 108.834 104.039C102.372 96.7689 97.2033 90.8092 97.2841 90.7312C97.365 90.6533 102.681 96.4859 109.143 103.759C115.605 111.033 120.785 116.987 120.693 117.065Z" fill="#263238"/>
<g opacity="0.5">
<path opacity="0.5" d="M118.797 70.7617L84.5956 98.0826L50.6914 71.2555" fill="black"/>
</g>
<path d="M54.1176 73.7848L54.0137 52.516L113.648 51.8086L114.32 74.189L84.5915 97.7245L54.1176 73.7848Z" fill="#FAFAFA"/>
<path d="M54.1182 73.7847C54.1182 73.7847 54.3117 73.9291 54.6784 74.215L56.2953 75.4739L62.46 80.2872L84.6383 97.6753H84.5632L114.284 74.1312L114.255 74.1919C114.128 69.9242 113.992 65.4429 113.853 60.8866C113.764 57.8173 113.671 54.7855 113.582 51.8114L113.657 51.8836L54.0229 52.5621L54.0691 52.5159C54.0922 59.2061 54.1124 64.5219 54.124 68.1658C54.124 69.9878 54.124 71.3911 54.124 72.341V73.418C54.124 73.6606 54.124 73.7847 54.124 73.7847C54.124 73.7847 54.124 73.6635 54.124 73.4238C54.124 73.1841 54.124 72.8232 54.124 72.3526C54.124 71.4026 54.1038 70.0022 54.0893 68.1831C54.0662 64.5334 54.0316 59.2148 53.9883 52.5159V52.4668H54.0345L113.671 51.7363H113.744V51.8114C113.833 54.7826 113.923 57.8144 114.015 60.8837C114.154 65.4429 114.286 69.9214 114.416 74.1919V74.2294L114.387 74.2525L84.647 97.7764L84.6094 97.8052L84.5719 97.7764L62.408 80.3305L56.2809 75.4941L54.6639 74.2236C54.3001 73.9349 54.1182 73.7847 54.1182 73.7847Z" fill="#263238"/>
<path d="M104.223 62.5208C104.223 62.5612 95.1017 62.6507 83.8552 62.7171C72.6087 62.7836 63.4844 62.8095 63.4844 62.7662C63.4844 62.7229 72.6029 62.6363 83.8552 62.567C95.1075 62.4977 104.223 62.4775 104.223 62.5208Z" fill="#263238"/>
<path d="M104.223 68.5265C104.223 68.5698 95.1017 68.6593 83.8552 68.7258C72.6087 68.7922 63.4844 68.8153 63.4844 68.7748C63.4844 68.7344 72.6029 68.6449 83.8552 68.5756C95.1075 68.5063 104.223 68.4861 104.223 68.5265Z" fill="#263238"/>
<path d="M104.223 75.4539C104.223 75.4943 95.1017 75.5838 83.8552 75.6531C72.6087 75.7224 63.4844 75.7426 63.4844 75.6993C63.4844 75.656 72.6029 75.5694 83.8552 75.503C95.1075 75.4366 104.223 75.4106 104.223 75.4539Z" fill="#263238"/>
<path d="M104.225 82.3781C104.225 82.4214 95.5253 82.5051 84.7927 82.5715C74.0601 82.6379 65.3603 82.6552 65.3574 82.6148C65.3545 82.5744 74.0572 82.4878 84.7927 82.4214C95.5282 82.355 104.225 82.3376 104.225 82.3781Z" fill="#263238"/>
<path d="M96.5944 88.4558C96.5162 88.4691 96.4369 88.4749 96.3576 88.4732L95.6704 88.4934L93.1525 88.5338L84.8396 88.6522C81.5942 88.7071 78.6519 88.7244 76.5238 88.7273H74.006H73.3188C73.2396 88.7287 73.1605 88.7239 73.082 88.7128C73.1602 88.6996 73.2395 88.6938 73.3188 88.6955L74.006 88.6782L76.5238 88.6349L84.8368 88.5165C88.0822 88.4616 91.0245 88.4443 93.1497 88.4414H95.6704H96.3576C96.4367 88.4412 96.5158 88.446 96.5944 88.4558Z" fill="#263238"/>
<path d="M88.9162 94.2997C88.9162 94.3401 86.973 94.3748 84.585 94.3748C82.1971 94.3748 80.2539 94.3401 80.2539 94.2997C80.2539 94.2593 82.2 94.2246 84.585 94.2246C86.9701 94.2246 88.9162 94.2564 88.9162 94.2997Z" fill="#263238"/>
<path d="M80.3107 87.975C80.012 87.975 79.6997 87.975 79.3875 87.9563V87.7551C79.7025 87.7685 80.0202 87.7738 80.3216 87.7738H80.4682V87.975H80.3026H80.3107ZM81.8396 87.9268L81.826 87.7255C82.1872 87.7014 82.5484 87.6692 82.9123 87.6263L82.9367 87.8275C82.5701 87.8677 82.2035 87.9026 81.8396 87.9268ZM78.0378 87.8704C77.6848 87.8382 77.3182 87.8007 76.9516 87.7551L76.976 87.5538C77.3399 87.5994 77.7011 87.6397 78.0623 87.6692L78.0378 87.8704ZM84.2836 87.6182L84.2429 87.4224C84.5986 87.3526 84.9516 87.2748 85.2965 87.1863L85.3481 87.3821C84.9924 87.4707 84.6339 87.5512 84.2755 87.6182H84.2836ZM75.5938 87.5538C75.2381 87.4921 74.8769 87.4251 74.5239 87.3526L74.5646 87.1568C74.9177 87.2292 75.2761 87.2963 75.6291 87.3553L75.5938 87.5538ZM73.1878 87.0521C72.8321 86.9663 72.4791 86.8724 72.1342 86.7839L72.1885 86.5907C72.5307 86.6873 72.8837 86.7812 73.2367 86.859L73.1878 87.0521ZM86.638 86.9878L86.5701 86.7973C86.9123 86.6792 87.249 86.5478 87.5749 86.4082L87.6563 86.5907C87.3359 86.7329 86.9937 86.8778 86.6461 86.9878H86.638ZM70.8307 86.3761C70.1817 86.1641 69.8043 86.0112 69.7988 86.0112L69.8776 85.8234C69.8776 85.8234 70.2523 85.9736 70.8959 86.1856L70.8307 86.3761ZM88.881 85.9924L88.7806 85.8153C89.0929 85.6436 89.4024 85.4558 89.7011 85.26L89.8125 85.429C89.5192 85.6275 89.2096 85.8046 88.8892 85.9924H88.881ZM90.9177 84.6376L90.7928 84.4793C91.0806 84.2593 91.3631 84.0339 91.6319 83.8059L91.765 83.9588C91.5016 84.1949 91.2164 84.4176 90.9259 84.6376H90.9177ZM92.7697 83.0493L92.6285 82.9044C92.8838 82.6549 93.1363 82.3974 93.378 82.1371L93.5274 82.2739C93.283 82.5369 93.0386 82.7971 92.7779 83.0493H92.7697ZM94.4126 81.2464L94.2524 81.123C94.4778 80.8547 94.6951 80.5542 94.8987 80.2671L95.0671 80.3825C94.8661 80.6749 94.6407 80.9754 94.4208 81.2437L94.4126 81.2464ZM95.8084 79.253L95.6346 79.1484C95.822 78.8425 95.9985 78.5286 96.1642 78.2174L96.3434 78.3113C96.1859 78.6252 95.9985 78.9418 95.8166 79.253H95.8084ZM96.93 77.0933L96.7453 77.0128C96.8838 76.6936 97.0169 76.3582 97.1445 76.0228L97.3373 76.0926C97.2178 76.4333 97.0847 76.7687 96.9381 77.0933H96.93ZM97.7582 74.8102L97.5627 74.7538C97.6632 74.4158 97.7528 74.067 97.8342 73.7209L98.0325 73.7665C97.9592 74.1153 97.8668 74.4668 97.7663 74.8048L97.7582 74.8102ZM98.285 72.4412L98.0841 72.409C98.1384 72.0602 98.1818 71.7034 98.2171 71.352L98.4181 71.3707C98.3936 71.7276 98.3475 72.0871 98.2932 72.4412H98.285ZM98.5023 70.0266H98.2986C98.2986 69.871 98.2986 69.7154 98.2986 69.5598C98.2986 69.3586 98.2986 69.1574 98.2986 68.9588H98.5023C98.5023 69.1601 98.5023 69.3613 98.5023 69.5652C98.5158 69.7074 98.5131 69.8656 98.5104 70.0239L98.5023 70.0266ZM99.526 69.7932C99.3794 69.7932 99.2355 69.7932 99.0888 69.7932V69.592C99.4461 69.6121 99.8042 69.6121 100.161 69.592L100.175 69.7932C99.9768 69.7825 99.7541 69.7905 99.5287 69.7905L99.526 69.7932ZM97.7283 69.6322C97.3684 69.5678 97.0121 69.4845 96.6611 69.3827L96.7181 69.1896C97.062 69.2893 97.411 69.3708 97.7636 69.4337L97.7283 69.6322ZM101.544 69.5866L101.503 69.3908C101.854 69.3215 102.2 69.2319 102.54 69.1225L102.603 69.313C102.258 69.4233 101.907 69.5138 101.552 69.5839L101.544 69.5866ZM95.3848 68.9025C95.0514 68.7535 94.7269 68.586 94.4126 68.4008L94.5158 68.2291C94.8241 68.4093 95.1423 68.5723 95.469 68.7174L95.3848 68.9025ZM103.876 68.7764L103.787 68.5966C104.106 68.4351 104.416 68.256 104.715 68.0601L104.827 68.2264C104.52 68.4293 104.202 68.6147 103.874 68.7818L103.876 68.7764ZM93.2857 67.6308C93.1065 67.4886 92.9272 67.3357 92.7561 67.1774C92.6584 67.0862 92.5633 66.995 92.4846 66.9091L92.6285 66.7669C92.7181 66.8581 92.8105 66.9467 92.9001 67.0352C93.0684 67.1908 93.2422 67.3384 93.4187 67.4806L93.2857 67.6308ZM98.2117 67.6147C98.171 67.2579 98.1194 66.9038 98.0596 66.5603L98.2606 66.5255C98.323 66.8742 98.3746 67.2337 98.4127 67.5986L98.2117 67.6147ZM105.918 67.4081L105.783 67.2579C106.052 67.0237 106.308 66.7747 106.548 66.5121L106.698 66.6489C106.452 66.9179 106.191 67.1731 105.916 67.4135L105.918 67.4081ZM91.6102 65.844C91.4068 65.542 91.2392 65.2179 91.1105 64.8782L91.3006 64.8111C91.4228 65.1394 91.5813 65.4534 91.7731 65.7474L91.6102 65.844ZM107.553 65.5757L107.385 65.4604C107.54 65.2457 107.686 65.0177 107.825 64.7896C107.871 64.7145 107.917 64.6394 107.961 64.5616L108.137 64.6609C108.091 64.7387 108.047 64.8165 108.001 64.8916C107.857 65.1465 107.705 65.3745 107.551 65.5945L107.553 65.5757ZM97.7772 65.2457C97.6794 64.8916 97.5708 64.5509 97.4513 64.2316L97.6441 64.1619C97.7636 64.4865 97.875 64.8326 97.9727 65.1921L97.7772 65.2457ZM91.0915 63.5367H90.8878C90.9005 63.1676 90.9815 62.8039 91.1268 62.4636L91.3142 62.5414C91.1806 62.8574 91.1052 63.1945 91.0915 63.5367ZM108.743 63.4831L108.558 63.4053C108.694 63.0887 108.83 62.7533 108.946 62.4126L109.139 62.477C109.014 62.8124 108.881 63.1504 108.74 63.4697L108.743 63.4831ZM96.8947 63.0538C96.7268 62.7442 96.5305 62.4505 96.3081 62.1765L96.4656 62.0478C96.6961 62.3319 96.8998 62.6363 97.0739 62.9572L96.8947 63.0538ZM92.0963 61.5112L91.9714 61.3556C92.2649 61.1218 92.6028 60.9485 92.9652 60.8458L93.0196 61.039C92.6833 61.1303 92.3687 61.2861 92.0935 61.4978L92.0963 61.5112ZM95.3006 61.3448C94.9946 61.1743 94.6626 61.0538 94.3176 60.988L94.3556 60.7895C94.7223 60.861 95.0752 60.9896 95.4011 61.1705L95.3006 61.3448ZM109.536 61.1866L109.337 61.1356C109.424 60.8163 109.508 60.4756 109.595 60.0973L109.794 60.1402C109.704 60.5105 109.62 60.8539 109.533 61.1731L109.536 61.1866ZM110.079 58.8256L109.878 58.7854L110.087 57.7337L110.285 57.7712L110.079 58.8256ZM110.562 56.462L110.364 56.4164C110.451 56.0301 110.538 55.6867 110.635 55.3701L110.831 55.4237C110.725 55.7242 110.638 56.0649 110.551 56.4486L110.562 56.462ZM111.241 54.1574L111.051 54.0877C111.172 53.7414 111.315 53.4028 111.477 53.0735L111.659 53.1648C111.498 53.4841 111.355 53.8119 111.23 54.1467L111.241 54.1574ZM112.373 52.0621L112.208 51.9414C112.425 51.6503 112.661 51.3742 112.916 51.115L113.06 51.2545C112.81 51.5035 112.577 51.7688 112.362 52.0487L112.373 52.0621ZM114.071 50.3907L113.948 50.227C114.244 50.0148 114.552 49.8187 114.869 49.6395L114.969 49.8165C114.655 49.9893 114.351 50.1811 114.06 50.3907H114.071ZM116.175 49.2343L116.094 49.0492C116.379 48.9312 116.68 48.8185 116.992 48.7139L117.058 48.9044C116.74 48.9929 116.444 49.1029 116.164 49.2209L116.175 49.2343Z" fill="#263238"/>
<path d="M108.604 46.8113L103.992 59.4845L113.681 51.918L150.711 38.4912L108.604 46.8113Z" fill="#FF9900"/>
<path opacity="0.1" d="M108.604 46.8113L103.992 59.4845L113.681 51.918L150.711 38.4912L108.604 46.8113Z" fill="black"/>
<path d="M113.682 51.918L150.712 38.4912L120.338 68.1301L113.682 51.918Z" fill="#FF9900"/>
<path d="M108.605 46.8119L93.2188 36.876L150.712 38.4918L108.605 46.8119Z" fill="#FF9900"/>
</svg>
