<svg width="141" height="150" viewBox="0 0 141 150" fill="none" xmlns="http://www.w3.org/2000/svg">
<g filter="url(#filter0_d_2_1083)">
<circle cx="70.5" cy="58.5" r="38.5" fill="#2E2E68"/>
</g>
<path d="M36.8924 116.408V119.992H30.6524V139H26.1404V119.992H19.9324V116.408H36.8924ZM38.8641 116.184C38.8641 115.459 39.1201 114.872 39.6321 114.424C40.1441 113.955 40.8161 113.72 41.6481 113.72C42.4801 113.72 43.1521 113.955 43.6641 114.424C44.1761 114.872 44.4321 115.459 44.4321 116.184C44.4321 116.888 44.1761 117.475 43.6641 117.944C43.1521 118.392 42.4801 118.616 41.6481 118.616C40.8161 118.616 40.1441 118.392 39.6321 117.944C39.1201 117.475 38.8641 116.888 38.8641 116.184ZM43.8881 121.272V139H39.3761V121.272H43.8881ZM58.3379 139L52.4819 131.256V139H47.9699V115.32H52.4819V128.632L58.3059 121.272H63.6499L56.1939 130.104L63.8419 139H58.3379ZM81.3924 116.408V119.992H75.1524V139H70.6404V119.992H64.4324V116.408H81.3924ZM90.8201 121.048C92.3135 121.048 93.5935 121.4 94.6601 122.104C95.7268 122.808 96.4841 123.757 96.9321 124.952V121.272H101.412V139H96.9321V135.288C96.4841 136.483 95.7268 137.443 94.6601 138.168C93.5935 138.872 92.3135 139.224 90.8201 139.224C89.3268 139.224 87.9828 138.861 86.7881 138.136C85.5935 137.411 84.6548 136.365 83.9721 135C83.3108 133.613 82.9801 131.992 82.9801 130.136C82.9801 128.28 83.3108 126.669 83.9721 125.304C84.6548 123.917 85.5935 122.861 86.7881 122.136C87.9828 121.411 89.3268 121.048 90.8201 121.048ZM92.2281 124.984C90.8201 124.984 89.6895 125.443 88.8361 126.36C87.9828 127.277 87.5561 128.536 87.5561 130.136C87.5561 131.736 87.9828 132.995 88.8361 133.912C89.6895 134.808 90.8201 135.256 92.2281 135.256C93.5935 135.256 94.7135 134.797 95.5881 133.88C96.4841 132.941 96.9321 131.693 96.9321 130.136C96.9321 128.557 96.4841 127.309 95.5881 126.392C94.7135 125.453 93.5935 124.984 92.2281 124.984ZM115.869 139L110.013 131.256V139H105.501V115.32H110.013V128.632L115.837 121.272H121.181L113.725 130.104L121.373 139H115.869Z" fill="white"/>
<path d="M81.1562 74.4795H65.4062C59.9784 74.4795 55.5625 70.0636 55.5625 64.6357V49.8701C55.5625 48.964 56.297 48.2295 57.2031 48.2295C58.1092 48.2295 58.8438 48.964 58.8438 49.8701V64.6357C58.8438 68.2543 61.7877 71.1982 65.4062 71.1982H81.1562C84.7748 71.1982 87.7188 68.2543 87.7188 64.6357V49.1658C87.7188 47.3882 87.0196 45.7238 85.7499 44.4792C85.1029 43.8449 85.0925 42.8061 85.7269 42.1591C86.3614 41.512 87.4 41.5019 88.047 42.136C89.9512 44.0029 91 46.4995 91 49.1658V64.6357C91 70.0636 86.5841 74.4795 81.1562 74.4795ZM54.2731 73.9874C54.9073 73.3403 54.8971 72.3016 54.25 71.6673C52.9804 70.4226 52.2812 68.7582 52.2812 66.9807V51.5107C52.2812 47.8922 55.2252 44.9482 58.8438 44.9482H74.5938C78.2123 44.9482 81.1562 47.8922 81.1562 51.5107V66.2764C81.1562 67.1825 81.8908 67.917 82.7969 67.917C83.703 67.917 84.4375 67.1825 84.4375 66.2764V51.5107C84.4375 46.0829 80.0216 41.667 74.5938 41.667H58.8438C53.4159 41.667 49 46.0829 49 51.5107V66.9807C49 69.647 50.0488 72.1436 51.953 74.0104C52.2724 74.3234 52.687 74.4795 53.1015 74.4795C53.5267 74.4795 53.9518 74.3151 54.2731 73.9874Z" fill="#FFC700"/>
<path d="M68.6429 62.3309L73.2218 59.5646C74.3948 58.8559 74.3948 57.1441 73.2218 56.4354L68.6429 53.6691C67.435 52.9394 65.8984 53.8154 65.8984 55.2337V60.7663C65.8984 62.1846 67.435 63.0606 68.6429 62.3309Z" fill="#DE5CEE"/>
<defs>
<filter id="filter0_d_2_1083" x="0" y="0" width="141" height="141" filterUnits="userSpaceOnUse" color-interpolation-filters="sRGB">
<feFlood flood-opacity="0" result="BackgroundImageFix"/>
<feColorMatrix in="SourceAlpha" type="matrix" values="0 0 0 0 0 0 0 0 0 0 0 0 0 0 0 0 0 0 127 0" result="hardAlpha"/>
<feOffset dy="12"/>
<feGaussianBlur stdDeviation="16"/>
<feColorMatrix type="matrix" values="0 0 0 0 0 0 0 0 0 0 0 0 0 0 0 0 0 0 0.1 0"/>
<feBlend mode="normal" in2="BackgroundImageFix" result="effect1_dropShadow_2_1083"/>
<feBlend mode="normal" in="SourceGraphic" in2="effect1_dropShadow_2_1083" result="shape"/>
</filter>
</defs>
</svg>
